<svg width="10" height="6" viewBox="0 0 10 6" fill="none" xmlns="http://www.w3.org/2000/svg">
<path fill-rule="evenodd" clip-rule="evenodd" d="M9.70692 5.70703C9.51939 5.8945 9.26508 5.99982 8.99992 5.99982C8.73475 5.99982 8.48045 5.8945 8.29292 5.70703L4.99992 2.41403L1.70692 5.70703C1.51832 5.88919 1.26571 5.98998 1.00352 5.9877C0.741321 5.98543 0.490509 5.88026 0.305101 5.69485C0.119692 5.50944 0.0145233 5.25863 0.0122448 4.99643C0.00996641 4.73423 0.110761 4.48163 0.292919 4.29303L4.29292 0.293031C4.48045 0.10556 4.73475 0.000244141 4.99992 0.000244141C5.26508 0.000244141 5.51939 0.10556 5.70692 0.293031L9.70692 4.29303C9.89439 4.48056 9.99971 4.73487 9.99971 5.00003C9.99971 5.26519 9.89439 5.5195 9.70692 5.70703Z" fill="#fff"/>
</svg>
