<svg width="16" height="17" viewBox="0 0 16 17" fill="none" xmlns="http://www.w3.org/2000/svg">
<g clip-path="url(#clip0)">
<path d="M14.0648 3.54203H10.9729V2.83367C10.9729 2.05237 10.4182 1.41699 9.73612 1.41699H6.0258C5.34371 1.41699 4.78902 2.05233 4.78902 2.83367V3.54199H1.69711C1.01499 3.54203 0.460327 4.17737 0.460327 4.95867V7.08368C0.460327 7.86501 1.01499 8.50036 1.69711 8.50036H6.64421V8.14618C6.64421 7.95041 6.78251 7.792 6.95341 7.792H8.80857C8.97948 7.792 9.11777 7.95041 9.11777 8.14618V8.50036H14.0649C14.7469 8.50036 15.3016 7.86501 15.3016 7.08368V4.95867C15.3016 4.17737 14.7469 3.54203 14.0648 3.54203ZM9.73612 3.54203H6.0258V2.83367H9.73612V3.54203Z" fill="#1A1A2E"/>
<path d="M15.1301 8.88262C15.0247 8.82279 14.8988 8.83663 14.8058 8.91755C14.586 9.10813 14.3299 9.20877 14.0648 9.20877H9.11774V10.2713C9.11774 10.467 8.97945 10.6255 8.80854 10.6255H6.95338C6.78248 10.6255 6.64418 10.467 6.64418 10.2713V9.20877H1.69711C1.432 9.20877 1.17595 9.10813 0.956118 8.91755C0.86281 8.83593 0.73721 8.82209 0.631813 8.88262C0.526765 8.94248 0.460327 9.06524 0.460327 9.19981V14.1671C0.460327 14.9484 1.01499 15.5838 1.69711 15.5838H14.0648C14.7469 15.5838 15.3016 14.9485 15.3016 14.1671V9.19981C15.3016 9.06524 15.2352 8.94248 15.1301 8.88262Z" fill="#1A1A2E"/>
</g>
<defs>
<clipPath id="clip0">
<rect width="14.8413" height="17" fill="white" transform="translate(0.460327 0.000488281)"/>
</clipPath>
</defs>
</svg>
