<svg width="16" height="17" viewBox="0 0 16 17" fill="none" xmlns="http://www.w3.org/2000/svg">
<g clip-path="url(#clip0)">
<path d="M15.3016 5.4126V4.51611C15.3016 3.48921 14.5748 2.65674 13.6783 2.65674H2.08359C1.18709 2.65674 0.460327 3.48921 0.460327 4.51611V5.4126C0.460327 5.50427 0.525229 5.57861 0.605261 5.57861H15.1567C15.2367 5.57861 15.3016 5.50427 15.3016 5.4126Z" fill="#1A1A2E"/>
<path d="M0.460327 6.80713V12.4849C0.460327 13.5118 1.18709 14.3442 2.08359 14.3442H13.6783C14.5748 14.3442 15.3016 13.5118 15.3016 12.4849V6.80713C15.3016 6.71546 15.2367 6.64111 15.1567 6.64111H0.605261C0.525229 6.64111 0.460327 6.71546 0.460327 6.80713ZM4.17064 11.1567C4.17064 11.4501 3.96298 11.688 3.70685 11.688H3.24306C2.98694 11.688 2.77928 11.4501 2.77928 11.1567V10.6255C2.77928 10.3321 2.98694 10.0942 3.24306 10.0942H3.70685C3.96298 10.0942 4.17064 10.3321 4.17064 10.6255V11.1567Z" fill="#1A1A2E"/>
</g>
<defs>
<clipPath id="clip0">
<rect width="14.8413" height="17" fill="white" transform="translate(0.460327 0.000488281)"/>
</clipPath>
</defs>
</svg>
