<svg width="16" height="17" viewBox="0 0 16 17" fill="none" xmlns="http://www.w3.org/2000/svg">
<g clip-path="url(#clip0)">
<path d="M1.69669 10.2715H7.41676V17.0006H2.77886C2.18521 17.0006 1.69669 16.4411 1.69669 15.7611V10.2715Z" fill="#1A1A2E"/>
<path d="M14.0648 10.2715V15.7611C14.0648 16.4411 13.5762 17.0006 12.9826 17.0006H8.3447V10.2715H14.0648Z" fill="#1A1A2E"/>
<path d="M0.460236 6.19857V7.9694C0.460236 8.6494 0.948761 9.20898 1.54241 9.20898H1.69701H7.41708V8.14648V4.95898H1.54241C0.948761 4.95898 0.460236 5.51857 0.460236 6.19857Z" fill="#1A1A2E"/>
<path d="M14.2194 4.95898H8.3447V8.14648V9.20898H14.0648H14.2194C14.813 9.20898 15.3015 8.6494 15.3015 7.9694V6.19857C15.3015 5.51857 14.813 4.95898 14.2194 4.95898Z" fill="#1A1A2E"/>
<path d="M7.88092 5.69846C7.74611 5.69846 7.61749 5.63117 7.5303 5.51429C7.44187 5.39742 7.40291 5.24229 7.42208 5.08929C7.65088 3.31846 8.85859 -0.03125 11.7947 -0.03125C13.4705 -0.0305417 14.0648 1.00646 14.0648 1.89471C14.0648 3.47358 12.1459 5.69846 7.88092 5.69846ZM11.7947 1.03196C9.57963 1.03196 8.73862 3.44383 8.45973 4.62038C10.2073 4.52688 11.3093 4.02042 11.9437 3.58904C12.8237 2.9905 13.1372 2.32113 13.1372 1.894C13.1372 1.25792 12.444 1.03196 11.7947 1.03196Z" fill="#1A1A2E"/>
<path d="M7.88118 5.69824C3.61618 5.69824 1.69733 3.47336 1.69733 1.89449C1.69733 1.00624 2.29221 -0.0307617 3.96804 -0.0307617C6.90351 -0.0307617 8.11122 3.31895 8.34002 5.08978C8.35919 5.24278 8.32023 5.3979 8.2318 5.51478C8.14461 5.63095 8.01599 5.69824 7.88118 5.69824ZM3.96804 1.03174C3.31873 1.03174 2.6249 1.2584 2.6249 1.89449C2.6249 2.79903 4.00576 4.44732 7.30175 4.62086C7.02348 3.44361 6.18248 1.03174 3.96804 1.03174Z" fill="#1A1A2E"/>
</g>
<defs>
<clipPath id="clip0">
<rect width="14.8413" height="17" fill="white" transform="translate(0.460236 0.000488281)"/>
</clipPath>
</defs>
</svg>
