<svg width="16" height="17" viewBox="0 0 16 17" fill="none" xmlns="http://www.w3.org/2000/svg">
<path d="M15.1155 8.30141C15.3845 7.96249 15.3585 7.44302 15.0575 7.14145L8.42472 0.493579C8.12366 0.192007 7.64099 0.198324 7.34627 0.50782L0.690968 7.49589C0.396245 7.80539 0.38178 8.32419 0.658941 8.65419L0.825799 8.85324C1.10262 9.18324 1.55008 9.22258 1.82458 8.94085L2.32196 8.43064V15.9002C2.32196 16.3585 2.64614 16.7295 3.04594 16.7295H5.6402C6.04 16.7295 6.36418 16.3585 6.36418 15.9002V10.6745H9.67318V15.9002C9.66743 16.3582 9.95349 16.7292 10.3533 16.7292H13.1025C13.5023 16.7292 13.8265 16.3582 13.8265 15.8999V8.53582C13.8265 8.53582 13.9639 8.67369 14.1334 8.84432C14.3026 9.01461 14.6579 8.87807 14.927 8.53881L15.1155 8.30141Z" fill="#FFF9F8"/>
</svg>
