<svg width="16" height="17" viewBox="0 0 16 17" fill="none" xmlns="http://www.w3.org/2000/svg">
<g clip-path="url(#clip0)">
<path d="M9.73602 9.2087C9.39407 9.2087 9.11768 9.52607 9.11768 9.91698V12.7504C9.11768 13.1406 8.84061 13.4587 8.49923 13.4587H6.64409V2.83375C6.64409 2.22884 6.30768 1.68839 5.80189 1.48722L5.6188 1.41706H8.49923C8.84061 1.41706 9.11768 1.73508 9.11768 2.12547V4.25045C9.11768 4.64136 9.39407 4.95873 9.73602 4.95873C10.078 4.95873 10.3544 4.64136 10.3544 4.25045V2.12547C10.3544 0.953902 9.52202 0.000488281 8.49923 0.000488281H1.85168C1.82813 0.000488281 1.80843 0.0125503 1.78556 0.0160521C1.75578 0.0131988 1.72736 0.000488281 1.69712 0.000488281C1.01503 0.000488281 0.460327 0.635752 0.460327 1.41706V14.1669C0.460327 14.7719 0.79673 15.3123 1.30252 15.5135L5.02401 16.9345C5.15015 16.9791 5.2756 17.0003 5.4074 17.0003C6.08949 17.0003 6.64409 16.3649 6.64409 15.5836V14.8754H8.49923C9.52202 14.8754 10.3544 13.9219 10.3544 12.7504V9.91698C10.3544 9.52607 10.078 9.2087 9.73602 9.2087Z" fill="black"/>
<path d="M15.1204 6.58298L12.6468 3.74972C12.4701 3.54714 12.2041 3.48618 11.9729 3.5959C11.7423 3.70576 11.5913 3.96425 11.5913 4.25049V6.37547H9.11784C8.77646 6.37547 8.49939 6.69271 8.49939 7.08375C8.49939 7.47479 8.77646 7.79203 9.11784 7.79203H11.5913V9.91701C11.5913 10.2033 11.7423 10.4617 11.9729 10.5716C12.2041 10.6813 12.4701 10.6204 12.6468 10.4179L15.1204 7.58452C15.3622 7.30761 15.3622 6.85989 15.1204 6.58298Z" fill="black"/>
</g>
<defs>
<clipPath id="clip0">
<rect width="14.8413" height="17" fill="white" transform="translate(0.460327 0.000488281)"/>
</clipPath>
</defs>
</svg>
