<svg width="12" height="17" viewBox="0 0 12 17" fill="none" xmlns="http://www.w3.org/2000/svg">
<path d="M10.0551 6.37549H9.59128V4.25049C9.59128 1.90656 7.92726 0.000488281 5.88097 0.000488281C3.83468 0.000488281 2.17065 1.90656 2.17065 4.25049V6.37549H1.70686C0.940067 6.37549 0.315491 7.09013 0.315491 7.96924V15.4067C0.315491 16.2858 0.940067 17.0005 1.70686 17.0005H10.0551C10.8219 17.0005 11.4464 16.2858 11.4464 15.4067V7.96924C11.4464 7.09013 10.8219 6.37549 10.0551 6.37549ZM3.40746 4.25049C3.40746 2.68787 4.51677 1.4172 5.88097 1.4172C7.24516 1.4172 8.35447 2.68787 8.35447 4.25049V6.37549H3.40746V4.25049Z" fill="black"/>
</svg>
