<svg width="16" height="17" viewBox="0 0 16 17" fill="none" xmlns="http://www.w3.org/2000/svg">
<path d="M7.73272 9.02824C7.78175 9.03031 7.83089 9.03174 7.88049 9.03174C7.92646 9.03174 7.9722 9.03057 8.01784 9.02863C9.05593 9.05431 10.0769 9.36896 10.979 9.94405C11.2588 10.1224 11.6119 10.0072 11.7676 9.68672C11.9232 9.36623 11.8227 8.96183 11.5429 8.78349C11.1276 8.51878 10.6911 8.30062 10.2404 8.13097C11.2004 7.3066 11.8227 5.993 11.8227 4.51611C11.8227 2.02614 10.0542 0.000488281 7.88049 0.000488281C5.7067 0.000488281 3.93828 2.02614 3.93828 4.51611C3.93828 5.99391 4.56127 7.30829 5.52225 8.13253C4.64189 8.46443 3.81576 8.98077 3.09267 9.66195C1.76709 10.911 0.845401 12.6531 0.497445 14.5675C0.388405 15.1673 0.519072 15.7834 0.855818 16.2578C1.19087 16.7298 1.68783 17.0005 2.21911 17.0005H6.75C7.0701 17.0005 7.32974 16.7032 7.32974 16.3364C7.32974 15.9696 7.0701 15.6724 6.75 15.6724H2.21911C1.97159 15.6724 1.82235 15.5141 1.75532 15.4198C1.63971 15.2569 1.59498 15.045 1.63257 14.8381C2.23462 11.5257 4.78659 9.1067 7.73272 9.02824ZM5.09775 4.51611C5.09775 2.75855 6.346 1.32861 7.88049 1.32861C9.41487 1.32861 10.6632 2.75855 10.6632 4.51611C10.6632 6.22076 9.48903 7.61697 8.01851 7.69972C7.97243 7.69868 7.92646 7.69804 7.88049 7.69804C7.8352 7.69804 7.79002 7.69881 7.74484 7.69972C6.27319 7.61853 5.09775 6.22166 5.09775 4.51611ZM15.3011 12.3463C15.3017 12.7899 15.1503 13.2068 14.875 13.5204L13.7967 14.7486C13.6836 14.8776 13.5358 14.9419 13.388 14.9419C13.2391 14.9419 13.0902 14.8765 12.9769 14.746C12.7511 14.486 12.7521 14.0656 12.9791 13.807L13.7019 12.9837H10.4165C9.76927 12.9837 9.24287 13.5868 9.24287 14.328C9.24287 15.0693 9.76293 15.6724 10.4023 15.6724C10.7224 15.6724 10.9821 15.9696 10.9821 16.3364C10.9821 16.7032 10.7224 17.0005 10.4023 17.0005C9.77879 17.0005 9.19452 16.7216 8.75734 16.2152C8.32265 15.7117 8.0834 15.0415 8.0834 14.328C8.0834 12.8544 9.12998 11.6556 10.4165 11.6556H13.6486L12.9802 10.8985C12.7527 10.6405 12.7505 10.22 12.9757 9.95935C13.2008 9.69865 13.5679 9.69619 13.7956 9.95416L14.8722 11.1736C15.1483 11.4863 15.3006 11.9028 15.3011 12.3463Z" fill="#1A1A2E"/>
</svg>
