<svg width="16" height="17" viewBox="0 0 16 17" fill="none" xmlns="http://www.w3.org/2000/svg">
<g clip-path="url(#clip0)">
<path d="M7.77512 8.18944C8.75728 8.18944 9.60774 7.78594 10.3026 6.98985C10.9975 6.19388 11.3498 5.21997 11.3498 4.09483C11.3498 2.97008 10.9975 1.99604 10.3025 1.19982C9.60751 0.403982 8.75716 0.000488281 7.77512 0.000488281C6.79286 0.000488281 5.94262 0.403982 5.24773 1.19995C4.55284 1.99591 4.20047 2.96995 4.20047 4.09483C4.20047 5.21997 4.55284 6.19401 5.24784 6.98998C5.94284 7.78581 6.7932 8.18944 7.77512 8.18944Z" fill="#1A1A2E"/>
<path d="M14.0299 13.0724C14.0098 12.7411 13.9693 12.3798 13.9096 11.9982C13.8494 11.6138 13.7718 11.2504 13.679 10.9182C13.583 10.5749 13.4526 10.2359 13.2914 9.91097C13.124 9.57375 12.9275 9.28012 12.7069 9.03849C12.4762 8.7857 12.1938 8.58246 11.8673 8.43422C11.5419 8.28675 11.1812 8.21204 10.7955 8.21204C10.644 8.21204 10.4974 8.28325 10.2145 8.49427C10.0403 8.62436 9.83663 8.77481 9.60926 8.94121C9.41485 9.0831 9.15147 9.21604 8.82617 9.33641C8.50878 9.45404 8.18653 9.5137 7.86847 9.5137C7.55041 9.5137 7.22827 9.45404 6.91055 9.33641C6.58558 9.21617 6.32221 9.08323 6.12802 8.94134C5.90281 8.77649 5.699 8.62604 5.52224 8.49414C5.23962 8.28312 5.09299 8.21191 4.94149 8.21191C4.5556 8.21191 4.19508 8.28675 3.86977 8.43435C3.54345 8.58233 3.26094 8.78557 3.03006 9.03862C2.80961 9.28038 2.61293 9.57388 2.4458 9.91097C2.28467 10.2359 2.15423 10.5748 2.05822 10.9183C1.96548 11.2505 1.88792 11.6138 1.82768 11.9982C1.76801 12.3793 1.72747 12.7407 1.70743 13.0728C1.68773 13.3981 1.67776 13.7357 1.67776 14.0766C1.67776 14.964 1.92404 15.6825 2.40968 16.2123C2.88932 16.7351 3.52397 17.0003 4.29574 17.0003H11.4419C12.2137 17.0003 12.8481 16.7352 13.3278 16.2123C13.8136 15.6828 14.0599 14.9643 14.0599 14.0765C14.0597 13.734 14.0497 13.3961 14.0299 13.0724Z" fill="#1A1A2E"/>
</g>
<defs>
<clipPath id="clip0">
<rect width="14.8412" height="17" fill="white" transform="translate(0.460327 0.000488281)"/>
</clipPath>
</defs>
</svg>
