<svg width="33" height="33" viewBox="0 0 33 33" fill="none" xmlns="http://www.w3.org/2000/svg">
<path d="M30.9375 22H27.5V19.9375C27.5 19.558 27.192 19.25 26.8125 19.25H18.5625C18.183 19.25 17.875 19.558 17.875 19.9375V22H11V11.6875C11 11.308 10.692 11 10.3125 11H9.89175L10.9642 7.77975C10.9876 7.70963 11 7.63673 11 7.56248V4.81252C11 4.43302 10.692 4.125 10.3125 4.125H6.87502V0.687521C6.87502 0.308021 6.567 0 6.1875 0C5.808 0 5.49998 0.308021 5.49998 0.687521V4.125H2.0625C1.683 4.125 1.37498 4.43302 1.37498 4.81252V7.56254C1.37498 7.63679 1.38735 7.70969 1.41075 7.77981L2.48325 11.0001H2.0625C1.683 11.0001 1.37498 11.3081 1.37498 11.6876V22.0001H0.687521C0.308021 22 0 22.308 0 22.6875V32.3125C0 32.692 0.308021 33 0.687521 33H23.375V25.4375C23.375 25.058 23.683 24.75 24.0625 24.75H28.1875C28.567 24.75 28.8751 25.058 28.8751 25.4375V33H30.9376C31.3171 33 31.6251 32.692 31.6251 32.3125V22.6875C31.625 22.308 31.317 22 30.9375 22ZM6.87502 28.1875C6.87502 28.567 6.567 28.8751 6.1875 28.8751H3.43748C3.05798 28.8751 2.74996 28.567 2.74996 28.1875V25.4375C2.74996 25.058 3.05798 24.75 3.43748 24.75H6.1875C6.567 24.75 6.87502 25.058 6.87502 25.4375V28.1875ZM8.25 17.1875C8.25 17.567 7.94198 17.875 7.56248 17.875H4.81252C4.43302 17.875 4.125 17.567 4.125 17.1875V14.4375C4.125 14.058 4.43302 13.75 4.81252 13.75H7.56254C7.94204 13.75 8.25006 14.058 8.25006 14.4375V17.1875H8.25ZM7.56248 8.25H4.81252C4.43302 8.25 4.125 7.94204 4.125 7.56254C4.125 7.18304 4.43302 6.87502 4.81252 6.87502H7.56254C7.94204 6.87502 8.25006 7.18304 8.25006 7.56254C8.25006 7.94204 7.94198 8.25 7.56248 8.25ZM13.75 28.1875C13.75 28.567 13.442 28.8751 13.0625 28.8751H10.3125C9.933 28.8751 9.62498 28.567 9.62498 28.1875V25.4375C9.62498 25.058 9.933 24.75 10.3125 24.75H13.0625C13.442 24.75 13.75 25.058 13.75 25.4375V28.1875H13.75ZM20.625 28.1875C20.625 28.567 20.317 28.8751 19.9375 28.8751H17.1875C16.808 28.8751 16.4999 28.567 16.4999 28.1875V25.4375C16.4999 25.058 16.808 24.75 17.1875 24.75H19.9375C20.317 24.75 20.625 25.058 20.625 25.4375V28.1875Z" fill="#E94560"/>
<path d="M32.4809 6.12567C31.3534 5.35429 30.1557 5.25942 28.9815 5.83002L25.0847 7.66152L24.9692 7.73029L22.5575 6.46939C21.5496 5.79837 20.3973 5.44227 19.2052 5.44227H19.2038L17.1689 5.50002C16.876 5.50827 16.6216 5.70079 16.5336 5.97987C16.4456 6.25902 16.5419 6.56285 16.777 6.73752L21.0574 9.94677L17.6886 11.6971C17.272 11.6572 16.0675 11.363 15.468 11.2158C14.6925 11.0275 14.5729 11 14.4368 11H13.0618C12.7717 11 12.5118 11.1828 12.4142 11.4565C12.3165 11.7301 12.4018 12.0354 12.6273 12.2196C13.2419 12.7215 16.3962 15.2254 18.1342 15.2254C18.4298 15.2254 18.691 15.1594 18.8739 15.0508L32.496 8.12494C32.8136 7.90219 33.002 7.52816 32.9993 7.12391C32.9979 6.72108 32.804 6.34842 32.4809 6.12567Z" fill="#1A1A2E"/>
</svg>
