<svg width="30" height="30" viewBox="0 0 30 30" fill="none" xmlns="http://www.w3.org/2000/svg">
<circle cx="15" cy="15" r="15" fill="#E94560"/>
<path d="M7 14C6.44772 14 6 14.4477 6 15C6 15.5523 6.44772 16 7 16V14ZM23.2074 15.7071C23.5979 15.3166 23.5979 14.6834 23.2074 14.2929L16.8434 7.92893C16.4529 7.53841 15.8198 7.53841 15.4292 7.92893C15.0387 8.31946 15.0387 8.95262 15.4292 9.34315L21.0861 15L15.4292 20.6569C15.0387 21.0474 15.0387 21.6805 15.4292 22.0711C15.8198 22.4616 16.4529 22.4616 16.8434 22.0711L23.2074 15.7071ZM7 16H22.5003V14H7V16Z" fill="white"/>
</svg>
