<svg width="48" height="48" viewBox="0 0 48 48" fill="none" xmlns="http://www.w3.org/2000/svg">
<g clip-path="url(#clip0)">
<path d="M30.1299 44.8153C31.6287 42.763 32.5783 40.3617 32.8886 37.8394C32.5048 37.8889 32.1183 37.9145 31.7313 37.9161C30.1532 37.9161 28.8937 37.453 27.9711 36.5305C26.9885 35.5479 26.385 34.6393 25.9003 33.9092C24.882 32.376 24.5009 31.8023 21.8747 32.24C21.4229 32.319 20.9653 32.3606 20.5066 32.3646C18.3342 32.3646 17.7552 31.2218 17.3137 30.3509C17.0061 29.7442 16.8058 29.3922 16.2643 29.2116C15.018 28.7962 14.2205 28.1569 13.8932 27.3114C13.376 25.974 14.1755 24.548 14.7594 23.5068C14.8793 23.2929 14.9925 23.091 15.0807 22.9147C15.2477 22.5811 15.2516 22.0031 15.1003 21.2828C12.0791 21.8807 9.31537 23.3946 7.18495 25.6186C7.55735 25.877 7.87656 26.2047 8.12517 26.5837C8.62795 27.3379 9.45783 27.9225 10.3364 28.5414C11.8199 29.5866 13.5015 30.7714 13.5015 33.0002C13.5015 34.9365 12.6507 35.6596 11.9001 36.2975C11.2954 36.8114 10.7732 37.2552 10.479 38.4321C10.3759 38.8446 10.3002 39.272 10.227 39.6853C9.87492 41.6728 9.47948 43.9018 5.7832 44.6922C7.08812 46.5299 8.79083 48.0495 10.7645 49.1378C12.7382 50.2261 14.932 50.8551 17.1825 50.9779C19.4331 51.1008 21.6823 50.7142 23.7627 49.8472C25.8431 48.9801 27.7011 47.6548 29.1982 45.97L30.1299 44.8153ZM15.3418 36.1587C16.0138 35.5399 16.811 35.0727 17.6794 34.7889C18.9976 34.3695 20.9942 34.2751 23.0192 36.2076C23.0592 36.2457 23.0948 36.2881 23.1255 36.3341C23.6607 37.137 24.252 37.2405 25.0005 37.3716C25.8961 37.5285 27.1229 37.7434 27.7127 39.513C28.1124 40.7118 27.8543 42.2963 27.0053 43.8617C27.178 43.951 27.3092 44.1038 27.3714 44.2879C27.4336 44.4721 27.4219 44.6732 27.3387 44.8489C27.2555 45.0245 27.1074 45.161 26.9255 45.2296C26.7436 45.2982 26.5422 45.2935 26.3638 45.2166C26.2996 45.1872 26.2364 45.1554 26.1726 45.1251C25.081 46.5078 23.6132 47.5175 22.054 47.9207C21.6122 48.04 21.157 48.103 20.6994 48.1082C19.9463 48.1082 19.3042 47.9051 18.7807 47.4997C17.7375 46.6923 17.2515 45.1829 17.2515 42.7502C17.2515 42.0701 16.5931 41.3747 15.9565 40.7021C15.3975 40.1115 14.8196 39.5011 14.5647 38.7864C14.2365 37.8658 14.498 36.9818 15.3418 36.1587Z" fill="#E94560"/>
<path d="M18.7485 42.7499C18.7485 44.6278 19.0673 45.827 19.6962 46.3139C20.1243 46.6452 20.7902 46.6973 21.6758 46.4682C22.8477 46.1653 23.9601 45.4216 24.8278 44.3964C24.7595 44.3545 24.6903 44.3137 24.6229 44.2707C24.5399 44.2177 24.4681 44.1488 24.4117 44.0681C24.3553 43.9874 24.3153 43.8963 24.2941 43.8001C24.2728 43.704 24.2708 43.6045 24.2879 43.5076C24.3051 43.4106 24.3413 43.3179 24.3943 43.2349C24.4472 43.1519 24.5161 43.0801 24.5968 43.0237C24.6775 42.9673 24.7686 42.9273 24.8648 42.9061C24.9609 42.8848 25.0604 42.8828 25.1573 42.8999C25.2543 42.9171 25.347 42.9533 25.43 43.0062C25.5115 43.0583 25.5946 43.108 25.6774 43.1581C25.6785 43.1562 25.6797 43.1544 25.6807 43.1524C26.316 41.9839 26.5483 40.7712 26.2871 39.9869C25.98 39.0661 25.5652 38.9932 24.7389 38.8487C23.9219 38.7057 22.8086 38.5107 21.9247 37.2395C20.9608 36.3421 20.0227 36.043 19.2012 36.043C17.6157 36.043 16.4636 37.1558 16.391 37.2274L16.3871 37.2312C15.6065 37.9921 15.8144 38.3727 17.0433 39.6704C17.8423 40.5152 18.7485 41.4725 18.7485 42.7499ZM20.8732 39.5004C21.035 39.3846 21.2361 39.3379 21.4323 39.3705C21.6285 39.403 21.8038 39.5122 21.9195 39.674C22.2633 40.1543 22.6398 40.6103 23.0462 41.0389C23.1154 41.1101 23.1698 41.1943 23.2062 41.2866C23.2426 41.3789 23.2604 41.4776 23.2584 41.5768C23.2564 41.6761 23.2347 41.7739 23.1946 41.8647C23.1545 41.9555 23.0968 42.0374 23.0248 42.1058C22.9528 42.1741 22.8679 42.2275 22.7752 42.2627C22.6824 42.298 22.5835 42.3146 22.4843 42.3114C22.3851 42.3082 22.2875 42.2853 22.1972 42.2441C22.1069 42.2029 22.0257 42.1442 21.9582 42.0714C21.5042 41.5927 21.0836 41.0833 20.6997 40.5468C20.6423 40.4667 20.6013 40.3761 20.579 40.2802C20.5567 40.1842 20.5536 40.0848 20.5697 39.9876C20.5858 39.8905 20.6209 39.7974 20.673 39.7138C20.725 39.6302 20.7931 39.5577 20.8732 39.5004Z" fill="#E94560"/>
<path d="M24 16.5C24 15.7044 23.6839 14.9413 23.1213 14.3787C22.5587 13.8161 21.7956 13.5 21 13.5C20.2044 13.5 19.4413 13.8161 18.8787 14.3787C18.3161 14.9413 18 15.7044 18 16.5C18 17.6531 19.6492 20.5704 21 22.6507C22.3508 20.5704 24 17.6531 24 16.5ZM19.5 16.5C19.5 16.2033 19.588 15.9133 19.7528 15.6666C19.9176 15.42 20.1519 15.2277 20.426 15.1142C20.7001 15.0006 21.0017 14.9709 21.2926 15.0288C21.5836 15.0867 21.8509 15.2296 22.0607 15.4393C22.2704 15.6491 22.4133 15.9164 22.4712 16.2074C22.5291 16.4983 22.4994 16.7999 22.3858 17.074C22.2723 17.3481 22.08 17.5824 21.8334 17.7472C21.5867 17.912 21.2967 18 21 18C20.6023 17.9995 20.2211 17.8413 19.9399 17.5601C19.6587 17.2789 19.5005 16.8977 19.5 16.5Z" fill="#1A1A2E"/>
<path d="M16.7364 27.7884C17.8891 28.1728 18.3106 29.0042 18.6494 29.6728C19.0951 30.5523 19.39 31.1331 21.626 30.7603C23.2692 30.4865 24.3895 30.5737 25.2585 31.043C26.0956 31.4951 26.5831 32.2293 27.1476 33.0793C27.6188 33.7889 28.1529 34.5931 29.0296 35.4699C29.8695 36.3099 31.2031 36.5899 32.9952 36.3086C32.9973 36.206 32.9992 36.1033 32.9992 36.0003C32.9992 32.937 32.0617 29.9471 30.3127 27.4323C28.5636 24.9175 26.0868 22.9982 23.2149 21.9323C22.4649 23.1869 21.7797 24.1897 21.6164 24.4261C21.5474 24.526 21.4552 24.6077 21.3477 24.6641C21.2402 24.7205 21.1206 24.7499 20.9992 24.7499C20.8778 24.7499 20.7583 24.7205 20.6508 24.6641C20.5433 24.6077 20.4511 24.526 20.3821 24.4261C20.18 24.1334 19.1789 22.6673 18.2439 21.0023C18.1623 21.001 18.0805 20.9998 17.9992 20.9998C17.5223 20.9998 17.0509 21.0232 16.5853 21.0669C16.7915 22.1065 16.7372 22.9519 16.4199 23.5856C16.316 23.7932 16.1944 24.0102 16.0655 24.24C15.6031 25.065 15.0275 26.0913 15.29 26.77C15.448 27.1785 15.9346 27.5212 16.7364 27.7884Z" fill="#E94560"/>
<path d="M4.91571 43.3269C8.14071 42.8437 8.38727 41.4643 8.74877 39.4236C8.82649 38.985 8.90683 38.5314 9.02271 38.0682C9.4338 36.4241 10.262 35.7201 10.9275 35.1546C11.5965 34.586 12.0003 34.2427 12.0003 33.0002C12.0003 31.5495 10.8284 30.7237 9.4713 29.7678C8.5189 29.0967 7.53405 28.4029 6.8763 27.4162C6.70295 27.1469 6.46664 26.9239 6.1878 26.7664C4.36458 29.0928 3.27085 31.907 3.04447 34.854C2.81809 37.8011 3.46919 40.7493 4.91571 43.3269Z" fill="#E94560"/>
<path d="M40.3003 9.49552L36.0014 12.0749C35.858 12.1609 35.6899 12.1966 35.5239 12.1762C35.3579 12.1558 35.2035 12.0806 35.0852 11.9624L34.5549 11.432C34.4141 11.2912 34.2467 11.1799 34.0625 11.1045C33.8782 11.029 33.6808 10.991 33.4818 10.9927C33.2827 10.9943 33.0859 11.0356 32.903 11.1141C32.72 11.1925 32.5545 11.3066 32.4161 11.4497C31.8502 12.0342 31.8744 12.9942 32.47 13.5899L32.9639 14.0837C33.0821 14.202 33.1573 14.3565 33.1777 14.5224C33.1981 14.6884 33.1624 14.8565 33.0763 14.9999L30.4969 19.2989C30.4106 19.4422 30.3748 19.6103 30.3952 19.7764C30.4156 19.9424 30.491 20.0969 30.6094 20.2151L31.3723 20.978L35.0848 17.2655C35.2254 17.1249 35.4162 17.0459 35.6151 17.0459C35.8139 17.0459 36.0047 17.1249 36.1454 17.2655L38.2667 19.3868C38.4074 19.5274 38.4864 19.7182 38.4864 19.9171C38.4864 20.116 38.4074 20.3067 38.2667 20.4474L38.0341 20.68C37.9157 20.7982 37.8403 20.9526 37.8199 21.1187C37.7995 21.2847 37.8354 21.4528 37.9216 21.5961L38.4159 22.4199L43.4214 17.4144L42.5976 16.9201C42.4543 16.8339 42.2862 16.7981 42.1201 16.8185C41.9541 16.8389 41.7997 16.9143 41.6815 17.0326L41.4489 17.2652C41.3082 17.4059 41.1175 17.4849 40.9186 17.4849C40.7197 17.4849 40.5289 17.4059 40.3883 17.2652L38.267 15.1441C38.1264 15.0035 38.0474 14.8127 38.0474 14.6138C38.0474 14.4149 38.1264 14.2242 38.267 14.0835L41.9795 10.371L41.2166 9.6082C41.0984 9.48979 40.9439 9.41436 40.7778 9.39394C40.6118 9.37352 40.4436 9.40928 40.3003 9.49552Z" fill="#1A1A2E"/>
<path d="M31.6565 46.4851C31.6446 46.4851 31.6328 46.4851 31.6208 46.4844C31.2664 46.4677 30.9076 46.4375 30.5544 46.3945C30.2551 46.358 29.1096 46.3116 28.814 46.2567C28.6184 46.2203 28.4453 46.1077 28.3328 45.9437C28.2202 45.7797 28.1774 45.5776 28.2138 45.3821C28.2502 45.1865 28.3628 45.0134 28.5268 44.9008C28.6908 44.7883 28.8929 44.7455 29.0884 44.7819C29.3533 44.8312 30.4674 44.8728 30.7358 44.9054C31.0523 44.944 31.3733 44.9711 31.691 44.986C31.8865 44.9953 32.0707 45.0806 32.2041 45.2238C32.3376 45.367 32.4098 45.5567 32.4053 45.7524C32.4008 45.9481 32.3199 46.1343 32.18 46.2712C32.0401 46.4081 31.8523 46.4849 31.6565 46.4851Z" fill="#1A1A2E"/>
<path d="M34.9203 46.2401C34.7341 46.2401 34.5546 46.1708 34.4167 46.0458C34.2788 45.9208 34.1923 45.7489 34.174 45.5637C34.1558 45.3784 34.2071 45.193 34.318 45.0434C34.4288 44.8939 34.5914 44.7909 34.774 44.7546C35.3521 44.6387 35.9215 44.4827 36.478 44.2877C36.6657 44.2218 36.8719 44.2332 37.0512 44.3193C37.2305 44.4055 37.3683 44.5593 37.4342 44.7471C37.5001 44.9348 37.4887 45.141 37.4026 45.3203C37.3164 45.4997 37.1626 45.6374 36.9748 45.7033C36.3523 45.9215 35.7154 46.0961 35.0686 46.2256C35.0198 46.2353 34.9701 46.2402 34.9203 46.2401Z" fill="#1A1A2E"/>
<path d="M39.6596 44.2958C39.4981 44.296 39.3408 44.244 39.2111 44.1476C39.0815 44.0512 38.9865 43.9155 38.9402 43.7608C38.8939 43.606 38.8988 43.4404 38.9542 43.2887C39.0095 43.1369 39.1125 43.0071 39.2476 42.9185C39.7413 42.5946 40.2122 42.237 40.6567 41.8483C40.7308 41.7832 40.817 41.7334 40.9104 41.7017C41.0038 41.6699 41.1025 41.6569 41.2009 41.6634C41.2993 41.6699 41.3955 41.6957 41.4839 41.7394C41.5723 41.7831 41.6512 41.8438 41.7161 41.918C41.7811 41.9923 41.8307 42.0786 41.8622 42.172C41.8938 42.2654 41.9066 42.3642 41.8999 42.4626C41.8932 42.561 41.8672 42.6571 41.8234 42.7454C41.7795 42.8337 41.7186 42.9125 41.6443 42.9773C41.1477 43.4115 40.6218 43.8109 40.0702 44.1728C39.9483 44.2531 39.8056 44.2958 39.6596 44.2958Z" fill="#1A1A2E"/>
<path d="M43.3343 40.7257C43.1973 40.7256 43.0629 40.6879 42.9457 40.6168C42.8286 40.5456 42.7332 40.4438 42.6698 40.3222C42.6065 40.2007 42.5777 40.0641 42.5865 39.9274C42.5953 39.7906 42.6415 39.6589 42.7199 39.5465C43.0576 39.0622 43.3611 38.555 43.6282 38.0285C43.6728 37.9406 43.7342 37.8624 43.8089 37.7983C43.8837 37.7342 43.9704 37.6854 44.064 37.6548C44.1576 37.6242 44.2563 37.6123 44.3545 37.6198C44.4527 37.6273 44.5485 37.6541 44.6363 37.6987C44.7242 37.7432 44.8024 37.8046 44.8665 37.8794C44.9306 37.9541 44.9794 38.0408 45.01 38.1344C45.0406 38.228 45.0525 38.3267 45.045 38.425C45.0375 38.5232 45.0107 38.6189 44.9661 38.7068C44.6673 39.2957 44.3278 39.863 43.9501 40.4047C43.881 40.5039 43.7889 40.5849 43.6816 40.6408C43.5744 40.6967 43.4553 40.7258 43.3343 40.7257Z" fill="#1A1A2E"/>
<path d="M45.4102 36.039C45.2975 36.0389 45.1862 36.0135 45.0847 35.9646C44.9832 35.9156 44.8939 35.8445 44.8237 35.7564C44.7534 35.6683 44.7038 35.5655 44.6786 35.4557C44.6535 35.3458 44.6533 35.2317 44.6783 35.1218C44.777 34.689 44.8533 34.2514 44.9069 33.8108C44.9245 33.666 44.9399 33.5189 44.9526 33.373C44.9699 33.1748 45.0653 32.9916 45.2176 32.8638C45.37 32.7359 45.5669 32.6738 45.7651 32.6911C45.9633 32.7084 46.1464 32.8037 46.2743 32.9561C46.4022 33.1085 46.4643 33.3054 46.447 33.5036C46.4327 33.6663 46.4156 33.8308 46.3959 33.9922C46.336 34.4841 46.2508 34.9725 46.1407 35.4556C46.1029 35.6212 46.01 35.769 45.8774 35.8749C45.7447 35.9809 45.58 36.0387 45.4102 36.039Z" fill="#1A1A2E"/>
<path d="M45.5844 30.9173C45.4059 30.9171 45.2333 30.8532 45.0976 30.7371C44.962 30.6211 44.8722 30.4604 44.8444 30.284C44.7523 29.7012 44.6196 29.1256 44.4472 28.5613C44.3917 28.3719 44.4132 28.1682 44.5069 27.9945C44.6006 27.8208 44.759 27.691 44.9477 27.6333C45.1365 27.5756 45.3404 27.5946 45.5152 27.6863C45.69 27.7779 45.8217 27.9348 45.8816 28.1228C46.0744 28.7542 46.2229 29.3983 46.326 30.0503C46.3413 30.1476 46.3373 30.247 46.3143 30.3427C46.2912 30.4385 46.2496 30.5288 46.1916 30.6084C46.1337 30.6881 46.0606 30.7555 45.9766 30.8069C45.8926 30.8583 45.7993 30.8927 45.702 30.908C45.6631 30.9142 45.6238 30.9173 45.5844 30.9173Z" fill="#1A1A2E"/>
<path d="M43.8344 26.102C43.7047 26.1021 43.5772 26.0686 43.4643 26.0047C43.3514 25.9409 43.257 25.8488 43.1904 25.7375C42.8867 25.2311 42.5483 24.7463 42.1779 24.2865C42.053 24.1316 41.9948 23.9335 42.016 23.7357C42.0372 23.5379 42.1361 23.3567 42.291 23.2318C42.4458 23.107 42.6439 23.0487 42.8417 23.07C43.0395 23.0912 43.2208 23.1901 43.3456 23.3449C43.7597 23.8587 44.1378 24.4004 44.4773 24.9662C44.5455 25.08 44.5823 25.2098 44.584 25.3425C44.5857 25.4751 44.5522 25.6058 44.4869 25.7213C44.4216 25.8367 44.3268 25.9328 44.2123 25.9997C44.0977 26.0666 43.9675 26.1019 43.8348 26.102H43.8344Z" fill="#1A1A2E"/>
</g>
<defs>
<clipPath id="clip0">
<rect width="48" height="48" fill="white"/>
</clipPath>
</defs>
</svg>
