<svg width="33" height="33" viewBox="0 0 33 33" fill="none" xmlns="http://www.w3.org/2000/svg">
<path d="M8.10733 27.7647C5.33456 27.7647 2.3877 28.6822 2.3877 30.3823C2.3877 32.0825 5.33462 32.9999 8.10733 32.9999C10.88 32.9999 13.827 32.0825 13.827 30.3823C13.827 28.6822 10.88 27.7647 8.10733 27.7647Z" fill="#1A1A2E"/>
<path d="M8.10772 9.91934C3.64628 9.91934 0.0166016 13.549 0.0166016 18.0105C0.0166016 20.7805 1.33428 23.7587 3.9331 26.8625C5.84645 29.1477 7.73216 30.6162 7.81156 30.6776C7.8987 30.7451 8.00325 30.7788 8.10772 30.7788C8.2122 30.7788 8.31668 30.7451 8.40389 30.6776C8.48323 30.6162 10.3691 29.1477 12.2824 26.8625C14.8812 23.7587 16.1988 20.7804 16.1988 18.0105C16.1988 13.549 12.5692 9.91934 8.10772 9.91934ZM11.1419 18.0105C11.1419 19.6861 9.78344 21.0445 8.10772 21.0445C6.43207 21.0445 5.07366 19.6861 5.07366 18.0105C5.07366 16.3348 6.43207 14.9763 8.10772 14.9763C9.78344 14.9763 11.1419 16.3348 11.1419 18.0105Z" fill="#E94560"/>
<path d="M29.6826 14.2314C28.866 13.8986 27.7905 13.7153 26.6545 13.7153C25.5186 13.7153 24.4431 13.8986 23.6265 14.2314C22.6721 14.6203 22.1465 15.1913 22.1465 15.8391C22.1465 16.4869 22.672 17.058 23.6265 17.4469C24.4431 17.7796 25.5185 17.9629 26.6545 17.9629C27.7905 17.9629 28.8659 17.7796 29.6826 17.4469C30.6369 17.058 31.1624 16.4869 31.1624 15.8391C31.1624 15.1913 30.6369 14.6204 29.6826 14.2314Z" fill="#1A1A2E"/>
<path d="M8.10733 31.7912C5.68351 31.7912 3.12672 31.0902 2.52156 29.7779C2.43449 29.9667 2.3877 30.1683 2.3877 30.3823C2.3877 32.0825 5.33462 32.9999 8.10733 32.9999C10.88 32.9999 13.827 32.0824 13.827 30.3823C13.827 30.1683 13.7802 29.9668 13.6931 29.7779C13.088 31.0901 10.5312 31.7912 8.10733 31.7912Z" fill="#454559"/>
<path d="M29.6833 16.2382C28.8666 16.5709 27.7912 16.7543 26.6552 16.7543C25.5192 16.7543 24.4438 16.5709 23.6271 16.2382C22.9834 15.9759 22.5357 15.6305 22.3119 15.2348C22.2039 15.4258 22.1472 15.6283 22.1472 15.8392C22.1472 16.487 22.6728 17.0581 23.6272 17.4469C24.4438 17.7797 25.5192 17.963 26.6553 17.963C27.7913 17.963 28.8667 17.7797 29.6833 17.4469C30.6376 17.0581 31.1632 16.487 31.1632 15.8392C31.1632 15.6284 31.1065 15.4258 30.9985 15.2348C30.7747 15.6305 30.3269 15.9759 29.6833 16.2382Z" fill="#454559"/>
<path d="M26.6548 0C23.1641 0 20.3242 2.83993 20.3242 6.33059C20.3242 8.48654 21.3458 10.7997 23.3605 13.206C24.8387 14.9715 26.2973 16.1074 26.3587 16.1549C26.4459 16.2223 26.5504 16.256 26.6549 16.256C26.7593 16.256 26.8638 16.2223 26.951 16.1549C27.0124 16.1074 28.4711 14.9715 29.9493 13.206C31.9639 10.7998 32.9855 8.48661 32.9855 6.33059C32.9853 2.83993 30.1455 0 26.6548 0ZM28.9868 6.33059C28.9868 7.61849 27.9427 8.66256 26.6548 8.66256C25.3669 8.66256 24.3228 7.61849 24.3228 6.33059C24.3228 5.04268 25.3669 3.99867 26.6548 3.99867C27.9427 3.99867 28.9868 5.04268 28.9868 6.33059Z" fill="#E94560"/>
<path d="M8.10674 9.91935C7.79859 9.91935 7.49463 9.93727 7.19538 9.97098C11.2293 10.4252 14.3751 13.8571 14.3751 18.0105C14.3751 20.7805 13.0574 23.7587 10.4586 26.8625C9.18227 28.3868 7.91912 29.5469 7.19531 30.1692C7.55664 30.4799 7.78416 30.6571 7.81058 30.6776C7.89772 30.7451 8.00227 30.7788 8.10674 30.7788C8.21122 30.7788 8.3157 30.7451 8.40291 30.6776C8.48225 30.6162 10.3681 29.1476 12.2814 26.8625C14.8802 23.7587 16.1979 20.7803 16.1979 18.0104C16.1979 13.549 12.5682 9.91935 8.10674 9.91935Z" fill="#E7343F"/>
<path d="M26.6559 0C26.3465 0 26.0422 0.0226875 25.7445 0.0658711C28.8048 0.509051 31.1637 3.14937 31.1637 6.33059C31.1637 8.48654 30.1421 10.7997 28.1275 13.206C27.219 14.2911 26.3185 15.1377 25.7445 15.6406C26.1043 15.956 26.3361 16.1365 26.3598 16.1548C26.447 16.2223 26.5515 16.256 26.6559 16.256C26.7604 16.256 26.8648 16.2223 26.9521 16.1548C27.0135 16.1073 28.4722 14.9714 29.9503 13.2059C31.965 10.7997 32.9865 8.48654 32.9865 6.33052C32.9865 2.83993 30.1466 0 26.6559 0Z" fill="#E7343F"/>
<path d="M15.6137 30.8669C15.3475 30.8669 15.1311 30.6517 15.1299 30.3852C15.1287 30.1179 15.3443 29.9002 15.6116 29.8991L16.2507 29.8962C16.2515 29.8962 16.2522 29.8962 16.253 29.8962C16.5192 29.8962 16.7357 30.1113 16.7368 30.3779C16.7381 30.6452 16.5224 30.8628 16.2551 30.864L15.616 30.8669C15.6152 30.8669 15.6144 30.8669 15.6137 30.8669ZM18.1703 30.8553C17.9041 30.8553 17.6876 30.6401 17.6864 30.3736C17.6852 30.1063 17.9009 29.8886 18.1681 29.8875L18.8073 29.8846C18.808 29.8846 18.8087 29.8846 18.8095 29.8846C19.0757 29.8846 19.2921 30.0997 19.2934 30.3663C19.2946 30.6336 19.0789 30.8512 18.8116 30.8524L18.1725 30.8553C18.1718 30.8553 18.171 30.8553 18.1703 30.8553ZM20.7269 30.8436C20.4607 30.8436 20.2442 30.6285 20.243 30.3619C20.2418 30.0947 20.4575 29.8769 20.7247 29.8758L21.3638 29.8729C21.3646 29.8729 21.3653 29.8729 21.366 29.8729C21.6322 29.8729 21.8487 30.088 21.8499 30.3546C21.8511 30.6219 21.6355 30.8396 21.3682 30.8407L20.7291 30.8436C20.7284 30.8436 20.7276 30.8436 20.7269 30.8436ZM23.2835 30.832C23.0173 30.832 22.8008 30.6169 22.7996 30.3503C22.7984 30.0831 23.0141 29.8653 23.2813 29.8642L23.9205 29.8613C23.9212 29.8613 23.9219 29.8613 23.9227 29.8613C24.1889 29.8613 24.4053 30.0764 24.4066 30.343C24.4077 30.6102 24.1921 30.828 23.9248 30.8291L23.2857 30.832C23.2849 30.832 23.2842 30.832 23.2835 30.832ZM25.84 30.8205C25.5738 30.8205 25.3574 30.6053 25.3561 30.3388C25.3549 30.0715 25.5706 29.8538 25.8379 29.8526L26.477 29.8497C26.4778 29.8497 26.4785 29.8497 26.4792 29.8497C26.7454 29.8497 26.9619 30.0649 26.9631 30.3315C26.9643 30.5988 26.7487 30.8164 26.4814 30.8176L25.8423 30.8205C25.8415 30.8205 25.8408 30.8205 25.84 30.8205ZM28.3966 30.8089C28.1305 30.8089 27.914 30.5938 27.9127 30.3273C27.9114 30.0601 28.127 29.8423 28.3943 29.841L28.4849 29.8406C28.6468 29.8399 28.809 29.8284 28.9675 29.8065C29.2318 29.7696 29.4764 29.9549 29.5131 30.2196C29.5497 30.4844 29.3647 30.7286 29.1 30.7652C28.8992 30.793 28.6937 30.8075 28.4893 30.8084L28.399 30.8089C28.3982 30.8089 28.3974 30.8089 28.3966 30.8089ZM30.804 30.0798C30.6507 30.0798 30.4998 30.0071 30.4059 29.8716C30.2537 29.6519 30.3082 29.3505 30.5279 29.1981C30.682 29.0913 30.8289 28.9715 30.9647 28.8422C31.1581 28.6578 31.4644 28.6652 31.6489 28.8587C31.8332 29.0521 31.8259 29.3584 31.6324 29.5428C31.4605 29.7067 31.2744 29.8583 31.0794 29.9935C30.9952 30.0519 30.8991 30.0798 30.804 30.0798ZM32.3344 28.0844C32.2804 28.0844 32.2255 28.0753 32.1718 28.0561C31.9201 27.9664 31.7888 27.6895 31.8785 27.4378C31.9414 27.2616 31.9908 27.0788 32.0254 26.8946C32.0749 26.632 32.3282 26.4593 32.5905 26.5087C32.8531 26.5581 33.0259 26.8112 32.9764 27.0738C32.9324 27.3074 32.8698 27.5393 32.79 27.7629C32.7195 27.9609 32.5331 28.0844 32.3344 28.0844ZM32.4127 25.5707C32.2024 25.5707 32.0087 25.4325 31.9478 25.2201C31.8962 25.0403 31.8298 24.8629 31.7505 24.6931C31.6376 24.4509 31.7423 24.1629 31.9844 24.0499C32.2269 23.937 32.5146 24.0417 32.6276 24.2838C32.7283 24.4995 32.8125 24.7246 32.8781 24.9531C32.9518 25.21 32.8034 25.478 32.5465 25.5518C32.5018 25.5646 32.4569 25.5707 32.4127 25.5707ZM31.0092 23.4831C30.9041 23.4831 30.7985 23.4492 30.7096 23.379C30.5625 23.2628 30.405 23.1573 30.242 23.0654C30.0091 22.9343 29.9266 22.6391 30.0578 22.4063C30.189 22.1734 30.4842 22.0909 30.7169 22.2222C30.9235 22.3386 31.1229 22.4722 31.3094 22.6193C31.5191 22.7849 31.5549 23.0893 31.3893 23.299C31.2938 23.42 31.1522 23.4831 31.0092 23.4831ZM28.6536 22.6061C28.6464 22.6061 28.6391 22.6059 28.6318 22.6055C28.5777 22.6031 28.5232 22.6019 28.4686 22.6019H28.0141C27.7468 22.6019 27.5302 22.3854 27.5302 22.118C27.5302 21.8508 27.7468 21.6341 28.0141 21.6341H28.4686C28.5368 21.6341 28.6061 21.6356 28.6746 21.6387C28.9415 21.6505 29.1484 21.8765 29.1365 22.1435C29.1252 22.4033 28.9109 22.6061 28.6536 22.6061ZM26.0967 22.602H25.4576C25.1903 22.602 24.9737 22.3854 24.9737 22.1181C24.9737 21.8509 25.1903 21.6342 25.4576 21.6342H26.0967C26.364 21.6342 26.5806 21.8509 26.5806 22.1181C26.5806 22.3854 26.364 22.602 26.0967 22.602ZM23.5401 22.602H22.901C22.6337 22.602 22.4171 22.3854 22.4171 22.1181C22.4171 21.8509 22.6337 21.6342 22.901 21.6342H23.5401C23.8074 21.6342 24.024 21.8509 24.024 22.1181C24.024 22.3854 23.8074 22.602 23.5401 22.602ZM20.9835 22.602H20.3443C20.0771 22.602 19.8604 22.3854 19.8604 22.1181C19.8604 21.8509 20.0771 21.6342 20.3443 21.6342H20.9835C21.2507 21.6342 21.4674 21.8509 21.4674 22.1181C21.4674 22.3854 21.2508 22.602 20.9835 22.602ZM18.5182 22.1207C18.43 22.1207 18.3406 22.0965 18.2605 22.046C18.053 21.9152 17.8581 21.7624 17.681 21.5921C17.4884 21.4069 17.4824 21.1006 17.6677 20.908C17.8528 20.7155 18.1593 20.7094 18.3519 20.8947C18.4818 21.0195 18.6247 21.1316 18.7768 21.2275C19.0029 21.37 19.0706 21.6689 18.928 21.8949C18.8359 22.0407 18.6787 22.1207 18.5182 22.1207ZM17.1118 20.0707C16.8848 20.0707 16.6823 19.9103 16.6373 19.6793C16.5929 19.4516 16.5704 19.2178 16.5704 18.9841L16.5706 18.9459C16.5737 18.6807 16.7897 18.4676 17.0544 18.4676C17.0563 18.4676 17.0583 18.4676 17.0601 18.4677C17.3274 18.4708 17.5415 18.6899 17.5384 18.9572L17.5382 18.984C17.5382 19.1557 17.5547 19.3274 17.5872 19.4941C17.6383 19.7564 17.4672 20.0105 17.2048 20.0616C17.1736 20.0678 17.1424 20.0707 17.1118 20.0707ZM17.6406 17.642C17.5428 17.642 17.4441 17.6125 17.3587 17.5511C17.1416 17.3952 17.092 17.0929 17.2479 16.8758C17.3911 16.6764 17.5552 16.4909 17.7356 16.3246C17.9322 16.1434 18.2382 16.1558 18.4194 16.3522C18.6006 16.5486 18.5882 16.8548 18.3918 17.0359C18.2595 17.158 18.1391 17.2941 18.034 17.4404C17.9395 17.5719 17.7912 17.642 17.6406 17.642ZM19.7709 16.3614C19.532 16.3614 19.3242 16.1846 19.2918 15.9413C19.2566 15.6764 19.4428 15.433 19.7077 15.3977C19.8658 15.3767 20.0275 15.366 20.1884 15.366H20.4093C20.6766 15.366 20.8932 15.5827 20.8932 15.8499C20.8932 16.1172 20.6766 16.3339 20.4093 16.3339H20.1884C20.07 16.3339 19.9512 16.3417 19.8353 16.3571C19.8136 16.3601 19.7922 16.3614 19.7709 16.3614Z" fill="#1A1A2E"/>
</svg>
