<svg width="30" height="35" viewBox="0 0 30 35" fill="none" xmlns="http://www.w3.org/2000/svg">
<path d="M25.0763 24.493L15 34.5693L4.92367 24.493C2.93079 22.5001 1.57363 19.961 1.0238 17.1968C0.473978 14.4325 0.756186 11.5674 1.83474 8.96351C2.91329 6.35968 4.73975 4.13414 7.08315 2.56834C9.42654 1.00254 12.1816 0.166794 15 0.166794C17.8184 0.166794 20.5735 1.00254 22.9169 2.56834C25.2603 4.13414 27.0867 6.35968 28.1653 8.96351C29.2438 11.5674 29.526 14.4325 28.9762 17.1968C28.4264 19.961 27.0692 22.5001 25.0763 24.493ZM13.4167 12.8333H8.66667V16H13.4167H16.5833H21.3333V12.8333H16.5833H16.1176H12.7647H13.4167Z" fill="#1A1A2E"/>
</svg>
