<svg width="38" height="26" viewBox="0 0 38 26" fill="none" xmlns="http://www.w3.org/2000/svg">
<path d="M11.5 13C15.2076 13 18.2083 10.0924 18.2083 6.5C18.2083 2.90759 15.2076 0 11.5 0C7.79245 0 4.79167 2.90759 4.79167 6.5C4.79167 10.0924 7.79245 13 11.5 13ZM16.1 14.8571H15.6029C14.357 15.4375 12.9734 15.7857 11.5 15.7857C10.0266 15.7857 8.64896 15.4375 7.39714 14.8571H6.9C3.09062 14.8571 0 17.8518 0 21.5429V23.2143C0 24.7522 1.28776 26 2.875 26H20.125C21.7122 26 23 24.7522 23 23.2143V21.5429C23 17.8518 19.9094 14.8571 16.1 14.8571Z" fill="#1A1A2E"/>
<path d="M28.8987 13C31.9135 13 34.3595 10.5365 34.3595 7.5C34.3595 4.46354 31.9135 2 28.8987 2C25.884 2 23.438 4.46354 23.438 7.5C23.438 10.5365 25.884 13 28.8987 13ZM31.6291 14.8333H31.413C30.6223 15.1083 29.7861 15.2917 28.8987 15.2917C28.0114 15.2917 27.1752 15.1083 26.3845 14.8333H26.1684C25.008 14.8333 23.9386 15.1714 23 15.7156C24.3879 17.2224 25.2582 19.2219 25.2582 21.4333V23.6333C25.2582 23.7594 25.2298 23.8797 25.2241 24H35.2696C36.777 24 38 22.7682 38 21.25C38 17.7036 35.1502 14.8333 31.6291 14.8333Z" fill="#E94560"/>
</svg>
