<svg width="33" height="31" viewBox="0 0 33 31" fill="none" xmlns="http://www.w3.org/2000/svg">
<path d="M32.7499 30.125H0.249878V26.875H1.87488V2.5C1.87488 2.06902 2.04608 1.6557 2.35083 1.35095C2.65558 1.0462 3.0689 0.875 3.49988 0.875H26.2499C26.6809 0.875 27.0942 1.0462 27.3989 1.35095C27.7037 1.6557 27.8749 2.06902 27.8749 2.5V10.625H31.1249V26.875H32.7499V30.125ZM24.6249 26.875H27.8749V13.875H18.1249V26.875H21.3749V17.125H24.6249V26.875ZM24.6249 10.625V4.125H5.12488V26.875H14.8749V10.625H24.6249ZM8.37488 13.875H11.6249V17.125H8.37488V13.875ZM8.37488 20.375H11.6249V23.625H8.37488V20.375ZM8.37488 7.375H11.6249V10.625H8.37488V7.375Z" fill="#E94560"/>
</svg>
