<svg width="33" height="23" viewBox="0 0 33 23" fill="none" xmlns="http://www.w3.org/2000/svg">
<path d="M31.9688 17.1719H31.4531V13.0469C31.4524 12.5001 31.2349 11.9759 30.8482 11.5893C30.4616 11.2026 29.9374 10.9851 29.3906 10.9844V2.21875C29.3899 1.67196 29.1724 1.14777 28.7857 0.761133C28.3991 0.374495 27.8749 0.156966 27.3281 0.15625H5.67188C5.12509 0.156966 4.6009 0.374495 4.21426 0.761133C3.82762 1.14777 3.61009 1.67196 3.60938 2.21875V10.9844C3.06259 10.9851 2.5384 11.2026 2.15176 11.5893C1.76512 11.9759 1.54759 12.5001 1.54688 13.0469V17.1719H1.03125C0.894498 17.1719 0.763346 17.2262 0.666648 17.3229C0.56995 17.4196 0.515625 17.5507 0.515625 17.6875V19.75C0.515625 19.8868 0.56995 20.0179 0.666648 20.1146C0.763346 20.2113 0.894498 20.2656 1.03125 20.2656H1.54688V22.3281C1.54688 22.4649 1.6012 22.596 1.6979 22.6927C1.7946 22.7894 1.92575 22.8438 2.0625 22.8438H3.60938C3.72855 22.8438 3.84405 22.8025 3.93619 22.727C4.02834 22.6514 4.09142 22.5462 4.11469 22.4293L4.54781 20.2656H28.4522L28.8853 22.4293C28.9086 22.5462 28.9717 22.6514 29.0638 22.727C29.156 22.8025 29.2715 22.8438 29.3906 22.8438H30.9375C31.0743 22.8438 31.2054 22.7894 31.3021 22.6927C31.3988 22.596 31.4531 22.4649 31.4531 22.3281V20.2656H31.9688C32.1055 20.2656 32.2367 20.2113 32.3334 20.1146C32.43 20.0179 32.4844 19.8868 32.4844 19.75V17.6875C32.4844 17.5507 32.43 17.4196 32.3334 17.3229C32.2367 17.2262 32.1055 17.1719 31.9688 17.1719ZM4.64062 2.21875C4.64098 1.94536 4.74975 1.68326 4.94307 1.48994C5.13639 1.29662 5.39848 1.18786 5.67188 1.1875H27.3281C27.6015 1.18786 27.8636 1.29662 28.0569 1.48994C28.2503 1.68326 28.359 1.94536 28.3594 2.21875V10.9844H27.3281V8.92188C27.3274 8.37509 27.1099 7.8509 26.7232 7.46426C26.3366 7.07762 25.8124 6.86009 25.2656 6.85938H19.0781C18.5313 6.86009 18.0071 7.07762 17.6205 7.46426C17.2339 7.8509 17.0163 8.37509 17.0156 8.92188V10.9844H15.9844V8.92188C15.9837 8.37509 15.7661 7.8509 15.3795 7.46426C14.9929 7.07762 14.4687 6.86009 13.9219 6.85938H7.73438C7.18759 6.86009 6.6634 7.07762 6.27676 7.46426C5.89012 7.8509 5.67259 8.37509 5.67188 8.92188V10.9844H4.64062V2.21875ZM26.2969 8.92188V10.9844H18.0469V8.92188C18.0472 8.64848 18.156 8.38639 18.3493 8.19307C18.5426 7.99975 18.8047 7.89098 19.0781 7.89062H25.2656C25.539 7.89098 25.8011 7.99975 25.9944 8.19307C26.1878 8.38639 26.2965 8.64848 26.2969 8.92188ZM14.9531 8.92188V10.9844H6.70312V8.92188C6.70348 8.64848 6.81225 8.38639 7.00557 8.19307C7.19889 7.99975 7.46098 7.89098 7.73438 7.89062H13.9219C14.1953 7.89098 14.4574 7.99975 14.6507 8.19307C14.844 8.38639 14.9528 8.64848 14.9531 8.92188ZM2.57812 13.0469C2.57848 12.7735 2.68725 12.5114 2.88057 12.3181C3.07389 12.1247 3.33598 12.016 3.60938 12.0156H29.3906C29.664 12.016 29.9261 12.1247 30.1194 12.3181C30.3128 12.5114 30.4215 12.7735 30.4219 13.0469V17.1719H2.57812V13.0469ZM3.18656 21.8125H2.57812V20.2656H3.49594L3.18656 21.8125ZM30.4219 21.8125H29.8134L29.5041 20.2656H30.4219V21.8125ZM31.4531 19.2344H1.54688V18.2031H31.4531V19.2344Z" fill="#E94560"/>
</svg>
