<svg width="26" height="22" viewBox="0 0 26 22" fill="none" xmlns="http://www.w3.org/2000/svg">
<path d="M19.9795 18.0337C19.8481 17.9809 19.2835 17.7493 19.0835 17.6562L16.322 16.4614L6.80112 21.5412L3.7671 20.3204L10.5089 13.9693L5.83578 12.0098L2.66625 13.7106L0.149087 12.6978L2.94043 8.63523C2.95797 8.61255 2.97677 8.59093 2.99634 8.57018C2.99799 8.56815 2.99898 8.56567 2.9992 8.56307C2.99915 8.5346 3.00066 8.50616 3.00373 8.47789L3.79652 3.59356L6.29774 4.59995L7.44448 8.08973L12.1603 9.86769L11.6987 0.606167L14.7419 1.83062L18.0823 12.0808L20.9022 13.1307C21.1138 13.2031 21.681 13.4269 21.8095 13.4786C22.9857 13.9519 23.8842 14.4973 24.48 15.1005C25.4913 16.1218 25.3394 17.0265 25.1591 17.4748C24.5859 18.8994 22.6498 19.1082 19.9795 18.0337Z" fill="#1A1A2E"/>
</svg>
