<svg width="40" height="40" viewBox="0 0 40 40" fill="none" xmlns="http://www.w3.org/2000/svg">
<g clip-path="url(#clip0)">
<path d="M9.39343 22.6914H6.43945C7.27932 24.3406 8.75836 25.5901 10.5597 26.1284C10.1198 25.2605 9.67853 24.1082 9.39343 22.6914Z" fill="#E94560"/>
<path d="M10.7866 22.6914C11.1723 24.4257 11.8091 25.6707 12.298 26.4228C12.3656 26.4247 12.4285 26.4427 12.4965 26.4427C12.5644 26.4427 12.6273 26.4247 12.6946 26.4228C13.1852 25.6691 13.8213 24.4245 14.2062 22.6914H10.7866Z" fill="#E94560"/>
<path d="M19.0765 17.9171H15.8121C15.869 18.4573 15.9083 19.0191 15.9083 19.6223C15.9083 20.2257 15.8676 20.7869 15.8101 21.3274H19.0765C19.2191 20.7792 19.3186 20.2144 19.3186 19.6223C19.3186 19.0301 19.2191 18.4653 19.0765 17.9171Z" fill="#E94560"/>
<path d="M14.4316 13.1154C14.8816 13.9969 15.3222 15.1394 15.6043 16.5529H18.554C17.7137 14.9031 16.234 13.6532 14.4316 13.1154Z" fill="#E94560"/>
<path d="M12.697 12.8219C12.6288 12.82 12.5652 12.8016 12.4966 12.8016C12.4287 12.8016 12.3654 12.8196 12.2981 12.8216C11.7885 13.6019 11.1638 14.8436 10.7852 16.5529H14.2084C13.8313 14.8494 13.2089 13.6072 12.697 12.8219Z" fill="#E94560"/>
<path d="M14.4371 17.9171H10.5589C10.4966 18.4537 10.4517 19.0131 10.4517 19.6223C10.4517 20.2311 10.4973 20.7905 10.5603 21.3274H14.4358C14.4984 20.7905 14.5441 20.2312 14.5441 19.6223C14.544 19.0131 14.499 18.4538 14.4371 17.9171Z" fill="#E94560"/>
<path d="M6.44092 16.5529H9.39166C9.67403 15.1388 10.115 13.995 10.5633 13.1154C8.76076 13.6536 7.28112 14.9031 6.44092 16.5529Z" fill="#E94560"/>
<path d="M9.08752 19.6223C9.08752 19.0191 9.12717 18.4573 9.18412 17.9171H5.91938C5.77683 18.4653 5.67725 19.0301 5.67725 19.6223C5.67725 20.2144 5.77683 20.7792 5.91938 21.3274H9.18616C9.12819 20.7869 9.08752 20.2257 9.08752 19.6223Z" fill="#E94560"/>
<path d="M15.6 22.6915C15.3156 24.1083 14.8747 25.2597 14.4341 26.1284C16.2351 25.5899 17.7138 24.3406 18.5537 22.6915H15.6Z" fill="#E94560"/>
<path d="M36.3933 4.3303L20.5818 0.0936323C19.1264 -0.296333 17.6304 0.567405 17.2405 2.02274L15.8145 7.34499H22.0469C22.8892 7.34499 23.6329 7.7347 24.1331 8.33448C24.6519 8.47345 25.6228 8.73357 26.5133 8.97212L31.0039 4.78515L32.2611 5.12209L29.447 9.75827C30.2728 9.9796 31.1158 10.2054 31.6682 10.3535L33.3744 9.35074L34.2126 9.57531L32.8895 11.579L33.0334 13.9759L32.1951 13.7514L31.2189 12.03C30.6664 11.8819 29.8235 11.6561 28.9976 11.4348L29.1168 16.8571L27.8596 16.5202L26.064 10.6488C25.6253 10.5313 25.1877 10.414 24.7751 10.3035V26.7099L26.1802 21.365L27.4977 21.7181L24.7751 32.0761V34.6274C24.7751 36.1341 23.5536 37.3556 22.0469 37.3556H17.3411L26.8609 39.9064C28.3163 40.2964 29.8123 39.4327 30.2022 37.9773L34.618 21.4982L33.2968 21.1541L33.6511 19.8367L34.971 20.1804L38.3227 7.67178C38.7126 6.21636 37.8487 4.72036 36.3933 4.3303ZM26.7081 19.3883L25.3906 19.0352L25.7449 17.7178L27.0624 18.0708L26.7081 19.3883ZM28.3785 18.4245L29.6974 18.7775L29.3457 20.095L28.0268 19.7419L28.3785 18.4245ZM27.567 37.2711L26.2495 36.9181L30.1329 22.4241L31.4504 22.7772L27.567 37.2711ZM31.9793 20.801L30.6618 20.448L31.0161 19.1305L32.3336 19.4835L31.9793 20.801Z" fill="#1A1A2E"/>
<path d="M22.0476 8.70941H1.58594V35.9916H22.0476C22.7999 35.9916 23.4117 35.3797 23.4117 34.6275V10.0735C23.4117 9.32139 22.7999 8.70941 22.0476 8.70941ZM19.3194 33.2634H5.67827V31.8993H19.3194V33.2634ZM12.4988 27.807C7.97859 27.807 4.31416 24.1425 4.31416 19.6223C4.31416 15.1021 7.97859 11.4376 12.4988 11.4376C17.0191 11.4376 20.6835 15.1021 20.6835 19.6223C20.6835 24.1425 17.0191 27.807 12.4988 27.807Z" fill="#E94560"/>
</g>
<defs>
<clipPath id="clip0">
<rect width="40" height="40" fill="white"/>
</clipPath>
</defs>
</svg>
