<svg width="33" height="33" viewBox="0 0 33 33" fill="none" xmlns="http://www.w3.org/2000/svg">
<path d="M28.165 4.83061C21.7204 -1.61206 11.2732 -1.61051 4.83049 4.83416C-1.61218 11.2788 -1.61063 21.726 4.83404 28.1687C11.2787 34.6114 21.7259 34.6098 28.1686 28.1652C31.2627 25.0701 33.0005 20.8725 32.9995 16.4961C32.9986 12.1204 31.2596 7.92424 28.165 4.83061ZM24.9882 22.984C24.9875 22.9847 24.9868 22.9854 24.986 22.9862V22.9807L24.15 23.8112C23.0688 24.906 21.4941 25.3565 19.9975 24.9992C18.4896 24.5956 17.0562 23.9531 15.7515 23.0962C14.5394 22.3215 13.4161 21.416 12.402 20.3957C11.4689 19.4694 10.6306 18.4523 9.89947 17.3597C9.09974 16.1839 8.46674 14.9031 8.01847 13.5536C7.50459 11.9683 7.93043 10.2288 9.11849 9.06016L10.0975 8.08118C10.3697 7.80777 10.8119 7.8068 11.0853 8.07899C11.086 8.0797 11.0868 8.08041 11.0875 8.08118L14.1785 11.1722C14.4519 11.4443 14.4528 11.8866 14.1806 12.16C14.1799 12.1607 14.1792 12.1614 14.1785 12.1622L12.3635 13.9772C11.8427 14.4923 11.7772 15.3108 12.2095 15.9022C12.8659 16.8031 13.5924 17.6509 14.382 18.4377C15.2624 19.3219 16.2194 20.1262 17.242 20.8412C17.8328 21.2533 18.6338 21.1839 19.1449 20.6762L20.8994 18.8942C21.1716 18.6208 21.6139 18.6198 21.8872 18.892C21.8879 18.8927 21.8887 18.8934 21.8894 18.8942L24.9859 21.9962C25.2594 22.2683 25.2604 22.7106 24.9882 22.984Z" fill="#E94560"/>
</svg>
