<svg width="38" height="26" viewBox="0 0 38 26" fill="none" xmlns="http://www.w3.org/2000/svg">
<path d="M0.403409 13.1481L5.6296 15.2516L4.52121 15.755C4.2096 15.9099 4.07157 16.2707 4.2096 16.5846L5.71535 19.7377C5.78854 19.8926 5.92448 20.0149 6.0876 20.072C6.24863 20.1392 6.43267 20.1392 6.5937 20.072L18.0499 14.8358L18.1942 13.3499L18.395 11.3627C18.418 11.0977 18.6585 10.9041 18.9283 10.9285C19.1039 10.9428 19.2566 11.0488 19.3298 11.2078C19.3716 11.2811 19.3904 11.3667 19.3842 11.4524L18.0562 25.1655C18.3532 25.3774 18.7254 25.4549 19.0851 25.3876C19.5912 25.2572 20.0408 24.6804 20.4131 23.7306L25.7271 8.31758L25.8798 7.87936C25.9572 7.62255 26.2332 7.4758 26.4988 7.55121C26.7623 7.62866 26.9129 7.89771 26.8355 8.15452C26.8293 8.16675 26.8272 8.17898 26.823 8.18917L26.3043 9.66688L25.7209 11.3627L34.6926 7.26586C37.2837 6.08574 38.6159 3.69695 37.7208 1.83402C37.2126 0.859757 36.2402 0.197338 35.1255 0.0668925C33.8874 -0.114509 32.6222 0.0750448 31.4971 0.611095L21.3375 5.23173L10.4313 1.08192C9.05727 0.578484 7.96769 0.590713 7.20436 1.1288C6.56442 1.64039 6.20053 2.41084 6.21517 3.22001C6.22145 3.42179 6.3281 3.61338 6.49959 3.72956L13.8464 8.63554L9.63447 10.578L2.57419 8.85567C2.28559 8.78841 1.98444 8.91478 1.83805 9.16548L0.0855296 12.235C-0.0943231 12.5469 0.0186077 12.9402 0.338578 13.1155C0.359492 13.1278 0.382496 13.138 0.403409 13.1481Z" fill="#E94560"/>
</svg>
