<svg width="24" height="22" viewBox="0 0 24 22" fill="none" xmlns="http://www.w3.org/2000/svg">
<path d="M17.8775 2.53965C17.7704 2.63237 17.3118 3.03501 17.1532 3.18824L14.9312 5.21723L4.17144 3.38851L1.69922 5.52946L10.246 9.46607L6.46495 12.8397L2.87973 12.2216L0.828666 13.9978L4.85011 17.0022C4.87442 17.0184 4.89957 17.0331 4.92517 17.0468C4.92742 17.0482 4.92919 17.0502 4.93028 17.0527C4.93982 17.08 4.95084 17.1068 4.96328 17.1329L7.36218 21.5645L9.40025 19.7995L9.31444 16.0855L13.1973 12.8724L15.8786 21.9037L18.3583 19.7562L18.0798 8.85626L20.4062 6.94772C20.5829 6.81055 21.0465 6.41455 21.1512 6.32388C22.1096 5.49388 22.7798 4.68342 23.1429 3.9144C23.7599 2.6114 23.3108 1.79217 22.9883 1.41982C21.9637 0.236655 20.0533 0.655374 17.8775 2.53965Z" fill="#1A1A2E"/>
</svg>
