<svg width="29" height="26" viewBox="0 0 29 26" fill="none" xmlns="http://www.w3.org/2000/svg">
<path d="M26.9286 0.515137H25.375V1.55087C25.375 2.69489 24.4476 3.62227 23.3036 3.62227C22.1596 3.62227 21.2322 2.69484 21.2322 1.55087V0.515137H16.5715V1.55087C16.5715 2.69489 15.644 3.62227 14.5001 3.62227C13.356 3.62227 12.4287 2.69484 12.4287 1.55087V0.515137H7.76792V1.55087C7.76792 2.69489 6.84049 3.62227 5.69652 3.62227C4.55243 3.62227 3.625 2.69489 3.625 1.55087V0.515137H2.0714C0.927434 0.515137 0 1.44257 0 2.5866V5.69373H27.4464C27.7324 5.69373 27.9643 5.92556 27.9643 6.21159C27.9643 6.49763 27.7324 6.72946 27.4464 6.72946H0V24.3366C0 25.4806 0.927434 26.408 2.0714 26.408H26.9285C28.0726 26.408 29 25.4806 29 24.3366V2.5866C29 1.44257 28.0726 0.515137 26.9286 0.515137ZM20.3 13.7251L18.5781 15.1985L19.3192 20.8348C19.3232 20.8671 19.3244 20.8997 19.3228 20.9322C19.2952 21.342 19.0026 21.6855 18.6024 21.7778C18.2398 21.8684 17.8615 21.7034 17.6812 21.376L15.3663 17.967L14.2566 18.9923L14.2938 21.0798C14.3296 21.5804 14.0216 22.0416 13.5455 22.2004C13.4231 22.2436 13.2942 22.2658 13.1644 22.2662C12.7915 22.2653 12.4438 22.0777 12.2385 21.7665L11.846 21.1528L11.1148 21.549C10.6446 21.8019 10.0645 21.7177 9.68549 21.3418C9.30543 20.9623 9.22109 20.3777 9.47835 19.9063L9.90401 19.1461L9.3214 18.7686C8.87672 18.4836 8.6898 17.9278 8.8719 17.432C9.04426 16.9515 9.52627 16.6544 10.0329 16.7163L12.0479 16.7785L13.0676 15.6811L9.60568 13.3507C9.2996 13.1647 9.15216 12.7997 9.24318 12.4533C9.33738 12.052 9.68645 11.762 10.0982 11.7428C10.1279 11.7414 10.1577 11.7426 10.1873 11.7464L15.8464 12.4838L17.3109 10.7925C17.5933 10.5016 17.9849 10.3426 18.3901 10.3543L19.5066 10.3601C20.1666 10.3639 20.7028 10.8939 20.7143 11.5537V11.561V12.6847C20.7245 13.0737 20.5747 13.4497 20.3 13.7251Z" fill="#E94560"/>
</svg>
