<svg xmlns="http://www.w3.org/2000/svg" height="253.951" width="253.734" xml:space="preserve"><path d="M88.143 42.451 65.559 170.732l102.76 18.106 6.804-38.328s-33.217 4.066-57.508-21.313c-24.298-25.389-24.484-55.56-9.244-83.15L88.143 42.45zm-1.106 104.016 5.78 1.023 6.48 13.924-5.55-.992-1.128-2.818-9.06-1.612-2.11 2.242-5.347-.947 10.935-10.82zm15.51 2.758 19.842 3.523-.393 2.195-7.324-1.302-1.81 10.181-5.15-.916 1.806-10.185-7.36-1.31.389-2.186zm-13.168.58-4.035 4.289 6.222 1.119-2.187-5.408zm42.205 4.562c1.38-.002 2.945.154 4.695.467 3.495.619 6.091 1.578 7.77 2.87 2.27 1.578 3.2 3.495 2.795 5.765-.392 2.218-1.927 3.702-4.61 4.443-2.022.636-4.777.644-8.285.02-3.5-.627-6.085-1.578-7.763-2.871-2.271-1.623-3.21-3.549-2.82-5.77.407-2.265 1.95-3.749 4.632-4.44 1.01-.319 2.206-.481 3.586-.484zm1.523 2.455c-.842.044-1.598.2-2.267.473-1.341.54-2.138 1.504-2.385 2.9-.25 1.394.168 2.583 1.238 3.541 1.072.974 2.624 1.646 4.65 2.006 2.025.363 3.703.265 5.028-.273 1.328-.548 2.114-1.52 2.36-2.908.246-1.392-.161-2.576-1.213-3.545-1.055-.967-2.6-1.63-4.627-1.987-1.012-.18-1.94-.25-2.784-.207zm18.743 1.162 5.117.912-1.807 10.157 12.131 2.152-.385 2.23-17.256-3.076 2.2-12.375z" style="fill:#fff;fill-opacity:1;fill-rule:nonzero;stroke:none;stroke-width:.13333333"/><path style="fill:#fff;fill-opacity:1;fill-rule:nonzero;stroke:none;stroke-width:.99999994" d="M-410.5 4142.048s-218.27 2.8-326.75 218.85c-149.8 298.59 161.82 459.05 161.82 459.05l276.58-49.22-111.65-628.68" transform="matrix(.13333 0 0 -.13333 230.94 696.689)"/><path style="fill:#fff;fill-opacity:1;fill-rule:nonzero;stroke:none;stroke-width:.99999994" d="M-1716.04 4437.948c-90.91-516.25 254.73-1010.32 770.55-1101.38 515.85-91.01 1009.44 254.96 1100.42 771.2 9.78 55.62 14.52 110.94 14.52 165.59 0 452.44-324.79 854.53-785.05 935.76-515.82 91.07-1009.47-254.9-1100.44-771.17zm781.2-1040.94c-482.52 85.17-805.87 547.36-720.82 1030.29 85.1 482.94 546.89 806.59 1029.41 721.41 482.55-85.16 805.87-547.33 720.8-1030.28-85.08-482.91-546.87-806.56-1029.39-721.42Zm1089.77 710.76" transform="matrix(.13333 0 0 -.13333 230.94 696.689)"/><path style="fill:#fff;fill-opacity:1;fill-rule:nonzero;stroke:none;stroke-width:.99999994" d="M-1595.31 4067.898c-1.37 7.23-2.42 14.49-4.35 21.51-1.9 7.05-4.67 13.84-7.17 20.74l192.95 52.67 18.89-69.24c10.69-39.1.69-64.52-31.09-73.21-50.08-13.68-70.74 20-84.57 70.68zm100.13 27.37c2-6.12 4.02-12.53 7.05-18.03 10.06-16.93 27.91-19.31 45.06-14.64 22.52 6.16 34.28 21.75 30.29 36.42l-4.79 17.47-77.61-21.22M-1366.48 4007.098l31.43-53.6c6.96-11.83 18.24-29.9 18.89-43.74.87-18.78-6.01-32.97-23.12-42.99-24.64-14.47-49.51-7.81-68.29 12.67-16.01-28.04-29.97-57.25-44.52-86.09l-9.85-18.96c-3.92 7.83-7.56 15.83-12.14 23.66-4.44 7.53-9.64 14.64-14.55 21.91l35.23 60.94c4.59 7.77 12.02 21.6 18.33 32.76l-1.04 1.76-80.73-47.4c-3.16 6.57-6.1 13.3-9.79 19.61-3.69 6.27-8.16 12.13-12.32 18.15zm-58.83-85.34c13-27.88 33.24-33.57 59.13-18.36 3.54 2.08 7.18 4.52 11.84 8.66 18.51 16.27 5.42 33.95-3.6 49.33l-67.37-39.63M-1338.2 3639.288c-48.45 42.47-56.19 99.63-12.59 149.51 38.21 43.68 100.97 51.15 155.57 3.27 62.52-54.76 42.34-115.04 12.8-149.26-37.26-43.01-102.04-50.62-155.78-3.52zm18.23 111.21c-24.93-28.54-38.5-70.2-5.59-99.04 33.78-29.58 78.47-9.04 110.37 27.42 24.76 28.33 40 72.34 7.11 101.2-30.49 26.72-68.85 19.61-111.89-29.58M-1093.8 3492.558c-6.46 3.42-12.8 7.15-19.47 10.03-6.69 2.95-13.75 5-20.65 7.38l71.18 164.71c-18.98 8.21-36.66 13.63-51.39 17.79 2.14 3.54 4.58 6.9 6.31 10.93 1.64 3.75 2.44 7.85 3.54 11.83l137.81-59.66c-2.17-3.51-4.59-6.93-6.22-10.68-1.76-4.01-2.53-8.12-3.63-12.08-14.97 8.72-29.97 17.37-46.27 24.46l-71.21-164.71M-827.35 3631.398c-1.25-3.92-2.83-8.11-3.49-12.13-.71-4.02-.56-8.51-.68-12.62-17.17 5.27-36.3 10.93-65.74 15.29l-10.47-61.86 29.91-5.03c12.94-2.2 24.9-3.06 35.8-3.42-1.25-3.93-2.86-8.13-3.55-12.14-.68-4.02-.56-8.49-.68-12.62-10.39 3.25-21.96 6.37-34.87 8.57l-29.91 5.09-12.38-73.06c29.37-4.7 49.16-6.6 67.07-7.26-1.22-3.92-2.85-8.12-3.51-12.14-.68-4.02-.57-8.45-.68-12.61l-109.51 18.62 33.21 195.9 109.48-18.58M-618.6 3477.978l-3.96-25.56c-16.55-10.71-36.81-16.22-56.27-18.1-62.1-6.01-112.82 27.74-118.59 87.28-7.35 75.83 41.57 115.46 104.78 121.62 19.17 1.82 42.88-.86 60.61-8.51-1.66-10.11-2.43-20.17-3.78-30.59l-4.07-.35c-12.26 14.61-31.87 23.86-50.74 22.02-48.17-4.65-63.17-52.71-59.03-95.44 4.81-49.67 32.57-82.16 77.24-77.81 18.04 1.75 38.01 13.09 49.88 26.83l3.93-1.39M-453.33 3498.428c-6.99-2.15-14.11-3.97-20.88-6.62-6.79-2.67-13.25-6.16-19.83-9.4l-65.5 167.09c-19.27-7.59-35.61-16.18-48.97-23.65-.96 4.01-1.64 8.15-3.24 12.22-1.5 3.81-3.78 7.3-5.84 10.86l139.8 54.91c.92-3.99 1.61-8.13 3.1-11.94 1.57-4.07 3.89-7.56 5.94-11.12-16.74-4.4-33.53-8.78-50.07-15.26l65.49-167.09M-362.03 3784.808c1.88-3.66 3.68-7.77 6.04-11.07 2.32-3.36 5.59-6.43 8.4-9.44-15.87-8.35-33.42-17.88-57.38-35.52l36.1-51.27 24.81 17.52c10.69 7.56 19.83 15.39 27.79 22.83 1.85-3.69 3.7-7.77 6.05-11.1 2.31-3.36 5.57-6.4 8.39-9.41-9.64-5.03-20.12-10.97-30.8-18.53l-24.79-17.53 42.68-60.53c24.13 17.37 39.48 29.99 52.69 42.17 1.88-3.69 3.67-7.75 6.02-11.11 2.34-3.36 5.62-6.39 8.42-9.4l-90.79-64.09-114.42 162.41 90.79 64.07M-271.27 3884.948c40.53 47.55 90.52 40.7 128.02 11.03 51.69-40.88 53.6-101.53 16.52-148.45l-50.66-64.1-155.72 123.26zm107.75-156.68 15.39 19.43c24.93 31.6 28.15 68.12-25.38 110.46-43.01 34.05-76.01 27.08-101.51-5.23l-17.7-22.44 129.2-102.22" transform="matrix(.13333 0 0 -.13333 230.94 696.689)"/></svg>
