<?xml version="1.0" encoding="UTF-8"?>
<svg width="67px" height="40px" viewBox="0 0 67 40" version="1.1" xmlns="http://www.w3.org/2000/svg" xmlns:xlink="http://www.w3.org/1999/xlink">
    <!-- Generator: Sketch 50.2 (55047) - http://www.bohemiancoding.com/sketch -->
    <title>logo</title>
    <desc>Created with Sketch.</desc>
    <defs></defs>
    <g id="Subscription-Funnel" stroke="none" stroke-width="1" fill="none" fill-rule="evenodd">
        <g id="Sign-In" transform="translate(-20.000000, -20.000000)">
            <g id="logo/logo-black" transform="translate(20.000000, 20.000000)">
                <g id="Logo">
                    <path d="M21.6248345,14.1558503 C20.0051807,13.1155372 18.1706046,12.5887372 16.1590967,12.5887372 C15.9103198,12.5887372 15.6569473,12.5999799 15.4015834,12.6164789 L15.1511215,11.3514582 C15.0457283,10.8186719 14.7225023,10.3476474 14.2526755,10.0421969 L8.81481792,6.60719259 C8.46064791,6.36890614 8.03218186,6.23194984 7.58089085,6.23194984 C7.44899622,6.23194984 7.31526334,6.24363055 7.18076453,6.26772201 L1.74688979,7.24525127 C1.18790781,7.34585137 0.693877419,7.65393005 0.373255525,8.1017392 C0.0526336312,8.54954835 -0.0682314784,9.10029374 0.0371616716,9.63308005 L5.02051133,34.7996039 C5.12590448,35.3322442 5.44913056,35.8032687 5.91895729,36.1088653 L11.3739719,39.5555502 C11.3773421,39.5578864 11.380559,39.5606605 11.3840823,39.5629967 C11.7430011,39.7963188 12.1648801,39.9186742 12.593193,39.9186742 C12.7257004,39.9186742 12.8586673,39.9069935 12.9908683,39.8831941 L18.3518257,38.9188056 C18.8179759,38.8349965 19.2202469,38.6132091 19.5209543,38.3061525 C20.2006482,38.4724566 20.9149626,38.5568497 21.6471999,38.5568497 C22.2565806,38.5568497 22.8910841,38.4981541 23.5332471,38.3826611 C26.4576006,37.8565912 28.7439273,36.4705292 30.3395306,34.2611232 L32.5817392,35.725592 C32.9359092,35.9638785 33.3643752,36.1008348 33.8156662,36.1008348 C33.9475609,36.1008348 34.0812938,36.0893001 34.2157926,36.0650626 L39.7590433,35.0679681 C40.3180253,34.967368 40.8122089,34.6592894 41.1328308,34.2114802 C41.4534527,33.7636711 41.5743178,33.2129257 41.4687715,32.6801394 L40.9615669,30.1185601 C40.9664689,30.1217723 40.9716773,30.1244004 40.9767325,30.1274666 L46.0294762,33.3306088 C46.3882418,33.563931 46.8101208,33.6862864 47.2384337,33.6862864 C47.370941,33.6862864 47.5040612,33.6746057 47.636109,33.6509522 L52.9970664,32.6865638 C53.4633698,32.6026087 53.8654875,32.3808212 54.166195,32.0739106 C54.8458889,32.2402147 55.5602033,32.3244618 56.2924406,32.3244618 C56.9018213,32.3244618 57.536478,32.2659123 58.1784877,32.1504193 C61.3154658,31.586095 63.7189811,30.0332909 65.322397,27.5350794 C66.8821543,25.104032 67.3573426,22.2780307 66.7350941,19.1353362 C66.1165221,16.0116228 64.6584814,13.558236 62.4014136,11.8433621 C62.171632,11.6687355 61.936642,11.5057896 61.6972096,11.3536484 L56.2702283,7.92346239 C54.6504214,6.88314932 52.8158453,6.35649539 50.8043374,6.35649539 C50.5557137,6.35649539 50.3023412,6.36773807 50.0469773,6.38409106 L49.7965154,5.11907037 C49.690969,4.58628406 49.3677429,4.11540551 48.8980694,3.80980899 L43.4327912,0.355677564 C43.0740256,0.122355418 42.6521466,0 42.2238337,0 C42.0913263,0 41.9582062,0.0116807082 41.8261584,0.0354801511 L36.3921305,1.01300942 C35.8333017,1.11346351 35.3391181,1.42154219 35.0184962,1.86935134 C34.6978743,2.31716049 34.5770092,2.86790588 34.6825555,3.40069218 L35.8302379,9.19680559 C35.4291925,9.20965437 35.0059348,9.25404106 34.5653669,9.33332387 C33.4513859,9.53364802 32.3795314,9.95853378 31.3750795,10.5971765 C31.0455727,10.4136434 30.6717947,10.3178616 30.2929615,10.3178616 C30.1604541,10.3178616 30.027334,10.3295423 29.8952862,10.3533417 L24.5343288,11.3177302 C23.3704085,11.5271069 22.6049295,12.5961837 22.8246007,13.705559 L23.0980407,15.0865107 L21.6248345,14.1558503 Z" id="Fill-1" fill="#000000"></path>
                    <path d="M19.0284591,23.2378412 C18.7524667,21.8455206 18.1517954,20.8540971 17.2269059,20.2631321 C16.3017092,19.6724595 15.2545659,19.4820992 14.0845546,19.6923435 C12.9143897,19.9025879 12.0053194,20.4444277 11.3584189,21.3175704 C10.7109041,22.1908594 10.5255269,23.3236642 10.8015193,24.7158385 C11.0730578,26.085351 11.6857088,27.0747276 12.6396259,27.6841145 C13.593543,28.2939401 14.6428364,28.4955583 15.7890421,28.2897002 C16.9344798,28.0839882 17.8286523,27.5329374 18.4715596,26.6362555 C19.1138525,25.7401584 19.2999976,24.6073536 19.0284591,23.2378412 Z M12.5198295,33.3829355 L7.14496514,34.3486267 L2.14868805,9.14810666 L7.59681252,8.1694031 L9.48759876,17.7065725 C9.78693614,17.0524464 10.3730169,16.4423284 11.2453803,15.8768033 C12.1178973,15.3117167 13.1509107,14.9216389 14.3456493,14.7068621 C16.9291043,14.242804 19.1497914,14.7151959 21.0069425,16.1234529 C22.8637864,17.5325872 24.0548389,19.5591498 24.5793321,22.2046028 C25.1038252,24.8497633 24.7243164,27.1709312 23.4415736,29.1678139 C22.15837,31.1645505 20.2496143,32.3907809 17.7146921,32.8460667 C16.5446808,33.0563111 15.4657454,33.0276547 14.4791147,32.7606823 C13.4920232,32.4935638 12.7101215,32.050998 12.1334094,31.4338621 L12.5198295,33.3829355 Z" id="Fill-3" fill="#FFFFFF"></path>
                    <path d="M36.4764383,11.158147 L37.5043732,16.3565891 C36.9731718,16.3328606 36.3808129,16.3795898 35.7272964,16.4973591 C34.4927069,16.7197959 33.5571946,17.2831667 32.9216746,18.1871803 C32.2855446,19.091485 32.1254063,20.3406542 32.4406499,21.9348334 L33.9276477,29.455324 L28.4086743,30.4495934 L25.0029155,13.2250045 L30.3402464,12.2636348 L30.7993093,14.5855377 C31.0614784,13.6294087 31.601373,12.8743171 32.4194506,12.3196808 C33.2370707,11.7657723 34.094039,11.4079518 34.9897454,11.2465104 C35.5464164,11.14621 36.0417774,11.1169496 36.4764383,11.158147" id="Fill-5" fill="#FFFFFF"></path>
                    <path d="M53.6028032,16.9251206 C53.3268107,15.5329462 52.7261394,14.5413765 51.8012499,13.9505577 C50.8760532,13.3597389 49.8289099,13.1693786 48.6588986,13.379623 C47.4887337,13.5898673 46.5796634,14.1317071 45.932763,15.0048498 C45.2852482,15.8781388 45.0998709,17.0109436 45.3758634,18.4032642 C45.6474018,19.7727766 46.2600528,20.762007 47.2139699,21.371394 C48.167887,21.9812196 49.217334,22.1828378 50.3633861,21.9769796 C51.5088238,21.7712676 52.4029963,21.2202169 53.0459036,20.3235349 C53.6881965,19.4274378 53.8743416,18.294633 53.6028032,16.9251206 Z M47.0941735,27.0702149 L41.7193092,28.0359061 L36.7230321,2.83538608 L42.1711565,1.85668252 L44.0619428,11.3938519 C44.3612802,10.7397258 44.9473609,10.1296078 45.8197243,9.56408268 C46.6922413,8.99899615 47.7252547,8.6089183 48.9199933,8.39414156 C51.5034484,7.93008343 53.7241354,8.40247531 55.5812865,9.81087856 C57.4381304,11.2198666 58.6291829,13.2464292 59.1536761,15.8918822 C59.6781692,18.5371889 59.2986604,20.8582106 58.0159176,22.8550933 C56.7327141,24.8518299 54.8239584,26.0780604 52.2890362,26.5333461 C51.1190248,26.7435905 50.0400895,26.7149341 49.0534587,26.4479618 C48.0663673,26.1808432 47.2844655,25.7382774 46.7077534,25.1211415 L47.0941735,27.0702149 Z" id="Fill-7" fill="#FFFFFF"></path>
                </g>
            </g>
        </g>
    </g>
</svg>