<?xml version="1.0" encoding="UTF-8"?>
<svg width="48px" height="46px" viewBox="0 0 48 46" version="1.1" xmlns="http://www.w3.org/2000/svg" xmlns:xlink="http://www.w3.org/1999/xlink">
    <!-- Generator: Sketch 60.1 (88133) - https://sketch.com -->
    <title>Star</title>
    <desc>Created with Sketch.</desc>
    <g id="Symbols" stroke="none" stroke-width="1" fill="none" fill-rule="evenodd">
        <g id="Artboard" transform="translate(-513.000000, -331.000000)" fill="#FF0053" stroke="#9F244C">
            <path d="M536.031569,369.596497 L524.875821,375.770329 C523.90938,376.305179 522.692342,375.955304 522.157493,374.988862 C521.930264,374.578274 521.854649,374.100857 521.943877,373.640147 L524.368224,361.122581 C524.499171,360.446464 524.273051,359.750537 523.769701,359.280516 L514.450723,350.578588 C513.643403,349.824725 513.600069,348.559137 514.353932,347.751818 C514.674207,347.408832 515.104891,347.189388 515.570626,347.131881 L528.224702,345.569432 C528.908193,345.485039 529.500184,345.054932 529.791656,344.430973 L535.187959,332.879055 C535.65545,331.878292 536.845705,331.44599 537.846467,331.913481 C538.271637,332.112092 538.61343,332.453885 538.812041,332.879055 L544.208344,344.430973 C544.499816,345.054932 545.091807,345.485039 545.775298,345.569432 L558.429374,347.131881 C559.525619,347.267239 560.304572,348.26565 560.169214,349.361895 C560.111708,349.827629 559.892264,350.258313 559.549277,350.578588 L550.230299,359.280516 C549.726949,359.750537 549.500829,360.446464 549.631776,361.122581 L552.056123,373.640147 C552.266148,374.724565 551.557313,375.773919 550.472894,375.983944 C550.012184,376.073173 549.534767,375.997557 549.124179,375.770329 L537.968431,369.596497 C537.365871,369.263028 536.634129,369.263028 536.031569,369.596497 Z" id="Star"></path>
        </g>
    </g>
</svg>