<?xml version="1.0" encoding="UTF-8"?>
<svg width="48px" height="46px" viewBox="0 0 48 46" version="1.1" xmlns="http://www.w3.org/2000/svg" xmlns:xlink="http://www.w3.org/1999/xlink">
    <!-- Generator: Sketch 60.1 (88133) - https://sketch.com -->
    <title>Star Copy</title>
    <desc>Created with Sketch.</desc>
    <g id="Symbols" stroke="none" stroke-width="1" fill="none" fill-rule="evenodd">
        <g id="Artboard" transform="translate(-578.000000, -331.000000)" fill="#D0D0DF" stroke="#BFBFD1">
            <path d="M601.031569,369.596497 L589.875821,375.770329 C588.90938,376.305179 587.692342,375.955304 587.157493,374.988862 C586.930264,374.578274 586.854649,374.100857 586.943877,373.640147 L589.368224,361.122581 C589.499171,360.446464 589.273051,359.750537 588.769701,359.280516 L579.450723,350.578588 C578.643403,349.824725 578.600069,348.559137 579.353932,347.751818 C579.674207,347.408832 580.104891,347.189388 580.570626,347.131881 L593.224702,345.569432 C593.908193,345.485039 594.500184,345.054932 594.791656,344.430973 L600.187959,332.879055 C600.65545,331.878292 601.845705,331.44599 602.846467,331.913481 C603.271637,332.112092 603.61343,332.453885 603.812041,332.879055 L609.208344,344.430973 C609.499816,345.054932 610.091807,345.485039 610.775298,345.569432 L623.429374,347.131881 C624.525619,347.267239 625.304572,348.26565 625.169214,349.361895 C625.111708,349.827629 624.892264,350.258313 624.549277,350.578588 L615.230299,359.280516 C614.726949,359.750537 614.500829,360.446464 614.631776,361.122581 L617.056123,373.640147 C617.266148,374.724565 616.557313,375.773919 615.472894,375.983944 C615.012184,376.073173 614.534767,375.997557 614.124179,375.770329 L602.968431,369.596497 C602.365871,369.263028 601.634129,369.263028 601.031569,369.596497 Z" id="Star-Copy"></path>
        </g>
    </g>
</svg>