<?xml version="1.0" encoding="UTF-8"?>
<svg width="150px" height="150px" viewBox="0 0 150 150" version="1.1" xmlns="http://www.w3.org/2000/svg" xmlns:xlink="http://www.w3.org/1999/xlink">
    <!-- Generator: Sketch 52.5 (67469) - http://www.bohemiancoding.com/sketch -->
    <title>icons/calendar</title>
    <desc>Created with Sketch.</desc>
    <g id="icons/calendar" stroke="none" stroke-width="1" fill="none" fill-rule="evenodd">
        <g id="Group-2" transform="translate(34.000000, 29.000000)">
            <rect id="Rectangle" fill="#FFB6CE" fill-rule="nonzero" x="10" y="14" width="72" height="60"></rect>
            <circle id="Oval" fill="#FFB6CE" fill-rule="nonzero" cx="42" cy="72" r="20"></circle>
            <g id="noun_Calendar_2080621" fill="#000000">
                <g id="Group">
                    <path d="M75.2142857,6.325 L57.2928571,6.325 L57.2928571,2.65833333 C57.2928571,1.46666667 56.2714286,0.458333333 55.0642857,0.458333333 C53.8571429,0.458333333 52.8357143,1.46666667 52.8357143,2.65833333 L52.8357143,6.325 L25.2571429,6.325 L25.2571429,2.65833333 C25.2571429,1.46666667 24.2357143,0.458333333 23.0285714,0.458333333 C21.8214286,0.458333333 20.8,1.46666667 20.8,2.65833333 L20.8,6.325 L2.78571429,6.325 C1.57857143,6.325 0.557142857,7.33333333 0.557142857,8.525 L0.557142857,68.1083333 C0.557142857,69.3 1.57857143,70.3083333 2.78571429,70.3083333 L19.5,70.3083333 C20.6142857,79.9333333 28.9714286,87.45 39,87.45 C49.0285714,87.45 57.3857143,79.9333333 58.5,70.3083333 L75.2142857,70.3083333 C76.5142857,70.3083333 77.4428571,69.3 77.4428571,68.1083333 L77.4428571,8.525 C77.4428571,7.33333333 76.5142857,6.325 75.2142857,6.325 Z M20.7071429,10.8166667 L20.7071429,14.4833333 C20.7071429,15.675 21.7285714,16.6833333 22.9357143,16.6833333 C24.1428571,16.6833333 25.1642857,15.675 25.1642857,14.4833333 L25.1642857,10.8166667 L52.7428571,10.8166667 L52.7428571,14.4833333 C52.7428571,15.675 53.7642857,16.6833333 54.9714286,16.6833333 C56.1785714,16.6833333 57.2,15.675 57.2,14.4833333 L57.2,10.8166667 L72.8928571,10.8166667 L72.8928571,22.9166667 L5.01428571,22.9166667 L5.01428571,10.8166667 L20.7071429,10.8166667 Z M39,83.05 C30.6428571,83.05 23.8642857,76.3583333 23.8642857,68.1083333 C23.8642857,59.8583333 30.6428571,53.2583333 39,53.2583333 C47.3571429,53.2583333 54.1357143,59.95 54.1357143,68.2 C54.1357143,76.45 47.3571429,83.05 39,83.05 Z M58.5,65.9083333 C57.3857143,56.2833333 49.0285714,48.7666667 39,48.7666667 C28.9714286,48.7666667 20.6142857,56.2833333 19.5,65.9083333 L5.01428571,65.9083333 L5.01428571,27.4083333 L72.8928571,27.4083333 L72.8928571,65.9083333 L58.5,65.9083333 Z" id="Shape" fill-rule="nonzero"></path>
                    <path d="M43.9214286,62.8833333 L36.6785714,69.9416667 L33.6142857,66.9166667 C32.6857143,66 31.2928571,66.0916667 30.4571429,66.9166667 C29.5285714,67.8333333 29.5285714,69.2083333 30.4571429,70.0333333 L35.1928571,74.7083333 C35.6571429,75.1666667 36.2142857,75.35 36.7714286,75.35 C37.3285714,75.35 37.8857143,75.1666667 38.35,74.7083333 L47.1714286,66 C48.1,65.0833333 48.1,63.7083333 47.1714286,62.8833333 C46.2428571,62.0583333 44.85,62.0583333 43.9214286,62.8833333 Z" id="Path"></path>
                </g>
            </g>
        </g>
    </g>
</svg>