<?xml version="1.0" encoding="UTF-8"?>
<svg width="150px" height="150px" viewBox="0 0 150 150" version="1.1" xmlns="http://www.w3.org/2000/svg" xmlns:xlink="http://www.w3.org/1999/xlink">
    <!-- Generator: Sketch 52.5 (67469) - http://www.bohemiancoding.com/sketch -->
    <title>icons/cash</title>
    <desc>Created with Sketch.</desc>
    <g id="icons/cash" stroke="none" stroke-width="1" fill="none" fill-rule="evenodd">
        <g id="Group" transform="translate(16.000000, 39.000000)">
            <rect id="Rectangle" fill="#FFB6CE" fill-rule="nonzero" x="11" y="11" width="86" height="48"></rect>
            <rect id="Rectangle-Copy-2" fill="#FFB6CE" fill-rule="nonzero" x="22" y="22" width="95" height="54" rx="3"></rect>
            <rect id="Rectangle" stroke="#000000" stroke-width="6" fill-rule="nonzero" x="3" y="3" width="94" height="53" rx="4"></rect>
            <path d="M105,15 C105,16.1045695 105.895431,17 107,17 L105,17 L105,15 Z M102.8125,17 L102.8125,11 L107,11 C109.209139,11 111,12.790861 111,15 L111,66 C111,68.209139 109.209139,70 107,70 L15,70 C12.790861,70 11,68.209139 11,66 L11,61.6542969 L17,61.6542969 L17,64 L105,64 L105,17 L102.8125,17 Z M107,64 C105.895431,64 105,64.8954305 105,66 L105,64 L107,64 Z M17,66 C17,64.8954305 16.1045695,64 15,64 L17,64 L17,66 Z M15,64 C16.1045695,64 17,64.8954305 17,66 L17,64 L15,64 Z M105,64 L105,17 L102.8125,17 L102.8125,11 L107,11 C109.209139,11 111,12.790861 111,15 L111,66 C111,68.209139 109.209139,70 107,70 L15,70 C12.790861,70 11,68.209139 11,66 L11,61.6542969 L17,61.6542969 L17,64 L105,64 Z M107,64 C105.895431,64 105,64.8954305 105,66 L105,64 L107,64 Z M105,15 C105,16.1045695 105.895431,17 107,17 L105,17 L105,15 Z" id="Rectangle-Copy" fill="#000000" fill-rule="nonzero"></path>
            <circle id="Oval" stroke="#000000" stroke-width="6" fill-rule="nonzero" cx="50" cy="29" r="24"></circle>
            <path d="M43.0826154,26.8815422 L44.6523077,26.8815422 C44.4136398,26.1522855 44.2943077,25.366944 44.2943077,24.525494 C44.2943077,23.0482818 44.8450714,21.7580778 45.9466154,20.6548434 C47.0481594,19.5516089 48.5168626,19 50.3527692,19 C51.399236,19 52.3171755,19.1682875 53.1066154,19.5048675 C53.8960552,19.8414475 54.506485,20.2855394 54.9379231,20.8371566 C55.3693611,21.3887738 55.6952297,21.9684307 55.9155385,22.5761446 C56.1358473,23.1838585 56.246,23.7962379 56.246,24.4133012 L52.6109231,24.9462169 C52.592564,24.1795624 52.395207,23.5765323 52.0188462,23.1371084 C51.6424853,22.6976845 51.1054907,22.4779759 50.4078462,22.4779759 C49.820356,22.4779759 49.320079,22.664962 48.907,23.0389398 C48.493921,23.4129175 48.2873846,23.9551772 48.2873846,24.6657349 C48.2873846,25.320196 48.4434343,26.0587911 48.7555385,26.8815422 L53.6023077,26.8815422 L53.6023077,29.9668434 L49.7193846,29.9668434 C49.7377437,30.0790367 49.7469231,30.2473242 49.7469231,30.4717108 C49.7469231,32.0424175 49.1778006,33.2110805 48.0395385,33.9777349 L51.6470769,33.9777349 C52.234567,33.9777349 52.721075,33.7860742 53.1066154,33.402747 C53.4921558,33.0194198 53.6849231,32.519232 53.6849231,31.9021687 L57.32,32.1265542 C57.32,33.7159598 56.8472611,35.029537 55.9017692,36.0673253 C54.9562773,37.1051136 53.7216486,37.624 52.1978462,37.624 L43,37.624 L43,34.3143133 C44.9093429,33.6411533 45.864,32.5005382 45.864,30.8924337 C45.864,30.686746 45.8272824,30.3782189 45.7538462,29.9668434 L43.0826154,29.9668434 L43.0826154,26.8815422 Z" id="£" fill="#000000"></path>
        </g>
    </g>
</svg>