<?xml version="1.0" encoding="UTF-8"?>
<svg width="150px" height="150px" viewBox="0 0 150 150" version="1.1" xmlns="http://www.w3.org/2000/svg" xmlns:xlink="http://www.w3.org/1999/xlink">
    <!-- Generator: Sketch 52.5 (67469) - http://www.bohemiancoding.com/sketch -->
    <title>icons/guide</title>
    <desc>Created with Sketch.</desc>
    <g id="icons/guide" stroke="none" stroke-width="1" fill="none" fill-rule="evenodd">
        <g id="Group-9" transform="translate(34.000000, 37.000000)" fill-rule="nonzero">
            <polygon id="Path-4" fill="#FFB6CE" points="11.1181641 18.5585938 11.1181641 75.3007813 24.640625 68 55.1484375 83.1738281 86.5205078 68 86.5205078 7.68164062 52.7041016 22.3574219 26.7753906 10.296875"></polygon>
            <g id="noun_Map_24173" fill="#000000">
                <path d="M80,3.10721433 L55.721618,14.2914959 L24.6975437,0 L0,11.3762191 L0,72.8952 L24.6975437,61.5165666 L24.6975437,61.5189809 L55.3012343,75.6149179 L55.3012343,76 L55.7191739,75.8080625 L55.7289503,75.811684 L55.7289503,75.8032339 L80,64.6237809 L80,3.10721433 Z M24.6682146,54.5959529 L6.36319198,63.0267162 L6.36319198,15.3803488 L24.6682146,6.94837828 L24.6682146,54.5959529 Z M49.3657583,65.9456145 L31.0607357,57.5148512 L31.0607357,9.86486229 L49.3657583,18.2968328 L49.3657583,65.9456145 Z M73.636808,60.6196512 L55.7289503,68.8693415 L55.7289503,21.222974 L73.636808,12.9732838 L73.636808,60.6196512 Z" id="Shape"></path>
            </g>
        </g>
    </g>
</svg>