<?xml version="1.0" encoding="UTF-8"?>
<svg width="150px" height="150px" viewBox="0 0 150 150" version="1.1" xmlns="http://www.w3.org/2000/svg" xmlns:xlink="http://www.w3.org/1999/xlink">
    <!-- Generator: Sketch 52.5 (67469) - http://www.bohemiancoding.com/sketch -->
    <title>icons/mail</title>
    <desc>Created with Sketch.</desc>
    <g id="icons/mail" stroke="none" stroke-width="1" fill="none" fill-rule="evenodd">
        <g id="noun_post_1747690" transform="translate(36.000000, 37.000000)">
            <path d="M54.92,13.9158577 C51.5308,11.358546 46.4519333,11.3634078 43.0701333,13.9182886 L12,37.4761853 L12,72.7072861 C12,76.7280024 15.3176667,80 19.4,80 L78.6,80 C82.6798667,80 86,76.7280024 86,72.7072861 L86,37.4761853 L54.9224667,13.9158577 L54.92,13.9158577 Z" id="Path" fill="#FFB6CE"></path>
            <path d="M45.2426,43.2109395 L46.6726,44.2996988 L63.6766,31.3529867 L66.8434,35.4326167 L50.934,47.5479593 L66.846,59.663302 L63.674,63.7455058 L42.0758,47.2982911 C40.3182,45.9650114 37.6818,45.9598636 35.9216,47.2982911 L14.586,63.5421678 L11.414,59.4651118 L27.066,47.5505332 L11.414,35.6333808 L14.586,31.5511769 L31.33,44.3022727 L32.7522,43.2160873 C36.3168,40.5057716 41.6702,40.5083455 45.2426,43.2160873 L45.2426,43.2109395 Z M72.8026,64.2783029 C72.8026,65.6965213 71.6326,66.852202 70.2026,66.852202 L7.8,66.852202 C6.3622,66.852202 5.2,65.6965213 5.2,64.2783029 L5.2,29.510075 L35.919,6.11333294 C37.6766,4.77490545 40.3156,4.78005325 42.0732,6.11333294 L72.8,29.510075 L72.8,64.2783029 L72.8026,64.2783029 Z M45.24,2.0285552 C41.6676,-0.679186571 36.3142,-0.674038773 32.7496,2.0311291 L0,26.9747845 L0,64.2783029 C0,68.5355319 3.497,72 7.8,72 L70.2,72 C74.5004,72 78,68.5355319 78,64.2783029 L78,26.9747845 L45.2426,2.0285552 L45.24,2.0285552 Z" id="Shape" fill="#000000"></path>
        </g>
    </g>
</svg>