<svg width="29" height="27" viewBox="0 0 29 27" fill="none" xmlns="http://www.w3.org/2000/svg">
<path d="M13.8294 0.92705C14.1288 0.00573945 15.4322 0.00574064 15.7315 0.927051L18.3234 8.90405C18.4573 9.31607 18.8413 9.59503 19.2745 9.59503H27.662C28.6307 9.59503 29.0335 10.8346 28.2498 11.404L21.4641 16.3341C21.1137 16.5887 20.967 17.0401 21.1009 17.4521L23.6928 25.4291C23.9921 26.3504 22.9376 27.1166 22.1539 26.5472L15.3683 21.6171C15.0178 21.3625 14.5432 21.3625 14.1927 21.6171L7.40706 26.5472C6.62335 27.1166 5.56887 26.3504 5.86822 25.4291L8.4601 17.4521C8.59398 17.0401 8.44732 16.5887 8.09683 16.3341L1.31119 11.404C0.527479 10.8346 0.930256 9.59503 1.89898 9.59503H10.2865C10.7197 9.59503 11.1037 9.31607 11.2375 8.90405L13.8294 0.92705Z" fill="#FFF9F8"/>
</svg>
