<svg width="29" height="27" viewBox="0 0 29 27" fill="none" xmlns="http://www.w3.org/2000/svg">
<path d="M13.8628 1.12019C13.9751 0.774697 14.4638 0.774693 14.5761 1.12019L17.168 9.09718C17.3855 9.76672 18.0095 10.22 18.7134 10.22H27.101C27.4642 10.22 27.6153 10.6849 27.3214 10.8984L20.5357 15.8285C19.9662 16.2423 19.7279 16.9757 19.9454 17.6453L22.5373 25.6223C22.6496 25.9678 22.2541 26.2551 21.9602 26.0415L15.1746 21.1115C14.6051 20.6977 13.8338 20.6977 13.2643 21.1115L6.47866 26.0415C6.18477 26.2551 5.78934 25.9678 5.9016 25.6223L8.49348 17.6453C8.71102 16.9757 8.4727 16.2423 7.90316 15.8285L1.11752 10.8984C0.823633 10.6849 0.974671 10.22 1.33794 10.22H9.72546C10.4294 10.22 11.0534 9.76672 11.2709 9.09718L13.8628 1.12019Z" stroke="#FFF9F8" stroke-width="1.25"/>
</svg>
