<?xml version="1.0" encoding="UTF-8"?>
<svg width="150px" height="150px" viewBox="0 0 150 150" version="1.1" xmlns="http://www.w3.org/2000/svg" xmlns:xlink="http://www.w3.org/1999/xlink">
    <!-- Generator: Sketch 52.5 (67469) - http://www.bohemiancoding.com/sketch -->
    <title>icons/select</title>
    <desc>Created with Sketch.</desc>
    <g id="icons/select" stroke="none" stroke-width="1" fill="none" fill-rule="evenodd">
        <g id="noun_finger_1701235-2" transform="translate(41.000000, 29.000000)">
            <g id="noun_finger_1701235">
                <path d="M24.4959498,12.5637254 L24.544816,43.4412753 L18.4364111,40.4677899 C8.24759337,36.3024563 2.18805661,49.0810666 8.69961691,55.0648978 C10.177849,56.4164831 17.6178856,58.5544427 19.6825251,62.3143023 C22.9810641,69.1828066 25.0457056,70.0183283 28.4419769,75.7195618 C27.0859102,75.7195618 24.4959497,75.387805 24.4959497,77.7837925 L24.4959497,89.9480523 C24.4959497,91.0784664 25.4122094,92 26.5483708,92 L64.0051028,92 C65.1290554,92 66.0453151,91.0784664 66.0453151,89.9480523 L66.0453151,77.7837915 C66.0453151,75.1912144 62.9544572,75.7195609 60.8287331,75.7195609 C61.683914,70.3992316 67.0226537,68.1506864 67.9633543,61.6630825 L68,39.0793471 L67.9877874,39.0793471 C68,32.8374842 48.7218801,30.502931 41.660562,28.3403956 L41.660562,12.8094683 L41.6483455,12.8094683 C41.5383967,3.4466778 24.5692491,4.09789531 24.4959498,12.5637254 Z" id="Path" fill="#FFB6CE"></path>
                <path d="M52.9595681,73.8357472 L55.9526858,73.8357472 L55.9526858,81.8838129 L22.5885794,81.8838129 L22.5885794,73.8357472 L52.9595681,73.8357472 Z M24.909772,4.46262726 C27.2920513,3.70082566 31.4091138,4.08172594 31.5679327,6.80946833 L31.5679327,23.8271384 C31.5679327,24.7855365 32.2154247,25.5964845 33.1072514,25.8176519 C36.1492354,26.8743449 39.8264948,27.6852968 43.4915377,28.483958 C50.0641826,29.933842 56.6246071,31.3714353 57.9073708,33.509395 L57.9073708,55.1961743 C57.6019535,59.4598067 51.3347259,62.9493516 50.6994581,69.719561 L27.1087993,69.719561 C23.8957761,63.4776981 19.2900404,59.4229422 17.3720012,54.5449554 C17.3109186,54.3975092 17.2376194,54.2500631 17.1520997,54.1271945 C13.1572025,48.3522438 7.7940259,47.6641643 5.25292976,45.8702445 C2.57744775,43.9780259 4.60543771,35.4753347 10.8726614,38.2645133 L19.6931978,42.5650062 C21.012611,43.2039384 22.674099,42.2824047 22.625229,40.5990665 L22.5641464,6.60058501 C22.5763628,5.62990392 23.6025752,4.88038914 24.909772,4.46262726 Z M18.4959498,6.56372537 L18.544816,37.4412753 L12.4364111,34.4677899 C2.24759337,30.3024563 -3.81194339,43.0810666 2.69961691,49.0648978 C4.17784902,50.4164831 11.6178856,52.5544427 13.6825251,56.3143023 C16.9810641,63.1828066 19.0457056,64.0183283 22.4419769,69.7195618 C21.0859102,69.7195618 18.4959497,69.387805 18.4959497,71.7837925 L18.4959497,83.9480523 C18.4959497,85.0784664 19.4122094,86 20.5483708,86 L58.0051028,86 C59.1290554,86 60.0453151,85.0784664 60.0453151,83.9480523 L60.0453151,71.7837915 C60.0453151,69.1912144 56.9544572,69.7195609 54.8287331,69.7195609 C55.683914,64.3992316 61.0226537,62.1506864 61.9633543,55.6630825 L62,33.0793471 L61.9877874,33.0793471 C62,26.8374842 42.7218801,24.502931 35.660562,22.3403956 L35.660562,6.80946833 L35.6483455,6.80946833 C35.5383967,-2.5533222 18.5692491,-1.90210469 18.4959498,6.56372537 Z" id="Shape" fill="#000000" fill-rule="nonzero"></path>
            </g>
        </g>
    </g>
</svg>