<?xml version="1.0" encoding="UTF-8"?>
<svg width="150px" height="150px" viewBox="0 0 150 150" version="1.1" xmlns="http://www.w3.org/2000/svg" xmlns:xlink="http://www.w3.org/1999/xlink">
    <!-- Generator: Sketch 52.5 (67469) - http://www.bohemiancoding.com/sketch -->
    <title>icons/wand</title>
    <desc>Created with Sketch.</desc>
    <g id="icons/wand" stroke="none" stroke-width="1" fill="none" fill-rule="evenodd">
        <g id="noun_wand_1520324" transform="translate(41.000000, 30.000000)">
            <path d="M27.1034091,40.6740214 C26.9806818,40.8576512 26.8272727,40.9494662 26.6431818,40.9494662 C26.3670455,40.9494662 26.1215909,40.7658363 26.0909091,40.4597865 L25.2625,31.3088968 C25.2318182,31.0640569 25.0784091,30.880427 24.8329545,30.8192171 L15.8738636,28.7380783 C15.3522727,28.6156584 15.2909091,27.9117438 15.7818182,27.6975089 L24.1886364,24.116726 C24.4034091,24.024911 24.5568182,23.8106762 24.5261364,23.5658363 L23.6977273,14.4761566 C23.6670455,14.1088968 23.9431818,13.8640569 24.25,13.8640569 C24.4034091,13.8640569 24.5568182,13.9252669 24.6488636,14.0476868 L30.6931818,20.9338078 C30.7852273,21.0562278 30.9386364,21.1174377 31.1227273,21.1174377 C31.1840909,21.1174377 31.2761364,21.1174377 31.3375,21.0868327 L39.775,17.5060498 C39.8363636,17.4754448 39.9284091,17.4448399 39.9897727,17.4448399 C40.3886364,17.4448399 40.6954545,17.9039146 40.45,18.2711744 L35.7556818,26.1672598 C35.6329545,26.3814947 35.6636364,26.6263345 35.8170455,26.8099644 L41.8613636,33.6960854 C42.1681818,34.0633452 41.8920455,34.6142349 41.4625,34.6142349 C41.4318182,34.6142349 41.3704545,34.6142349 41.3397727,34.6142349 L32.4113636,32.594306 C32.3806818,32.594306 32.3193182,32.594306 32.2886364,32.594306 C32.1045455,32.594306 31.9204545,32.686121 31.8284091,32.8697509 L27.1034091,40.6740214 Z" id="Path" fill="#FFB6CE"></path>
            <g id="Group">
                <path d="M52.4352273,80.919573 L34.7625,39.6640569 L36.1125,39.9701068 C36.5420455,40.0619217 37.0022727,40.1231317 37.4625,40.1231317 C39.825,40.1231317 42.0034091,38.7153025 42.9852273,36.5729537 C43.9670455,34.430605 43.5988636,31.8597865 42.0340909,30.0846975 L38.3522727,25.8918149 L41.2056818,21.0868327 C42.3102273,19.2199288 42.3409091,16.8939502 41.2670455,14.9964413 C40.1931818,13.0989324 38.1681818,11.9359431 35.9897727,11.9359431 C35.1613636,11.9359431 34.3636364,12.088968 33.5965909,12.4256228 L28.5034091,14.5985765 L24.8522727,10.4362989 C23.6863636,9.1202847 22.0295455,8.35516014 20.2806818,8.35516014 C18.5625,8.35516014 16.9363636,9.08967972 15.8011364,10.344484 C14.6659091,11.5992883 14.0829545,13.2825623 14.2363636,14.9658363 L14.7272727,20.4747331 L9.60340909,22.6476868 C7.17954545,23.6882562 5.70681818,26.1366548 5.95227273,28.7380783 C6.19772727,31.3701068 8.06931818,33.5124555 10.6465909,34.0939502 L16.1079545,35.3487544 L16.6295455,40.9188612 C16.9056818,44.0711744 19.5136364,46.427758 22.6738636,46.427758 C24.7909091,46.427758 26.7852273,45.2953737 27.8897727,43.4590747 L28.3806818,42.6021352 L45.9613636,83.6434164 C46.5443182,84.9900356 47.8329545,85.7857651 49.2136364,85.7857651 C49.6738636,85.7857651 50.1340909,85.6939502 50.5943182,85.5103203 C52.3738636,84.7758007 53.2022727,82.6946619 52.4352273,80.919573 Z M23.1034091,40.6740214 C22.9806818,40.8576512 22.8272727,40.9494662 22.6431818,40.9494662 C22.3670455,40.9494662 22.1215909,40.7658363 22.0909091,40.4597865 L21.2625,31.3088968 C21.2318182,31.0640569 21.0784091,30.880427 20.8329545,30.8192171 L11.8738636,28.7380783 C11.3522727,28.6156584 11.2909091,27.9117438 11.7818182,27.6975089 L20.1886364,24.116726 C20.4034091,24.024911 20.5568182,23.8106762 20.5261364,23.5658363 L19.6977273,14.4761566 C19.6670455,14.1088968 19.9431818,13.8640569 20.25,13.8640569 C20.4034091,13.8640569 20.5568182,13.9252669 20.6488636,14.0476868 L26.6931818,20.9338078 C26.7852273,21.0562278 26.9386364,21.1174377 27.1227273,21.1174377 C27.1840909,21.1174377 27.2761364,21.1174377 27.3375,21.0868327 L35.775,17.5060498 C35.8363636,17.4754448 35.9284091,17.4448399 35.9897727,17.4448399 C36.3886364,17.4448399 36.6954545,17.9039146 36.45,18.2711744 L31.7556818,26.1672598 C31.6329545,26.3814947 31.6636364,26.6263345 31.8170455,26.8099644 L37.8613636,33.6960854 C38.1681818,34.0633452 37.8920455,34.6142349 37.4625,34.6142349 C37.4318182,34.6142349 37.3704545,34.6142349 37.3397727,34.6142349 L28.4113636,32.594306 C28.3806818,32.594306 28.3193182,32.594306 28.2886364,32.594306 C28.1045455,32.594306 27.9204545,32.686121 27.8284091,32.8697509 L23.1034091,40.6740214 Z" id="Shape" fill="#000000" fill-rule="nonzero"></path>
                <path d="M51.8829545,27.452669 C51.8522727,27.452669 51.8522727,27.452669 51.8215909,27.452669 L46.6056818,27.2996441 C45.5931818,27.2690391 44.7954545,26.4427046 44.8261364,25.4021352 C44.8568182,24.3921708 45.6852273,23.5964413 46.7284091,23.6270463 L51.9443182,23.7800712 C52.9568182,23.8106762 53.7545455,24.6370107 53.7238636,25.6775801 C53.6931818,26.6569395 52.8647727,27.452669 51.8829545,27.452669 Z" id="Path" fill="#FFB6CE"></path>
                <path d="M6.56590909,16.7409253 C6.16704545,16.7409253 5.76818182,16.6185053 5.4,16.3430605 L0.951136364,12.7622776 C0.153409091,12.119573 0.0306818182,10.9565836 0.675,10.1914591 C1.31931818,9.39572954 2.48522727,9.27330961 3.25227273,9.91601423 L7.70113636,13.4661922 C8.49886364,14.1088968 8.62159091,15.2718861 7.97727273,16.0370107 C7.63977273,16.4960854 7.0875,16.7409253 6.56590909,16.7409253 Z" id="Path" fill="#FFB6CE"></path>
                <path d="M31.9704545,9.08967972 C31.7863636,9.08967972 31.5715909,9.05907473 31.3875,8.99786477 C30.4363636,8.66120996 29.9147727,7.62064057 30.2215909,6.67188612 L32.0318182,1.28540925 C32.3693182,0.336654804 33.4125,-0.183629893 34.3636364,0.122419929 C35.3147727,0.459074733 35.8363636,1.49964413 35.5295455,2.44839858 L33.7193182,7.83487544 C33.4431818,8.6 32.7375,9.08967972 31.9704545,9.08967972 Z" id="Path" fill="#FFB6CE"></path>
                <path d="M4.26477273,48.6619217 C3.80454545,48.6619217 3.34431818,48.4782918 2.97613636,48.141637 C2.23977273,47.4377224 2.23977273,46.2747331 2.94545455,45.5402135 L7.39431818,40.9800712 C8.1,40.2455516 9.26590909,40.2455516 10.0022727,40.9494662 C10.7386364,41.6533808 10.7386364,42.8163701 10.0329545,43.5508897 L5.58409091,48.111032 C5.21590909,48.4782918 4.75568182,48.6619217 4.26477273,48.6619217 Z" id="Path" fill="#FFB6CE"></path>
            </g>
        </g>
    </g>
</svg>